<svg class="main-svg" xmlns="http://www.w3.org/2000/svg" xmlns:xlink="http://www.w3.org/1999/xlink" width="700" height="400" style="" viewBox="0 0 700 400"><rect x="0" y="0" width="700" height="400" style="fill: rgb(255, 255, 255); fill-opacity: 1;"/><defs id="defs-3a6f4e"><g class="clips"><clipPath id="clip3a6f4exyplot" class="plotclip"><rect width="540" height="220"/></clipPath><clipPath class="axesclip" id="clip3a6f4ex"><rect x="80" y="0" width="540" height="400"/></clipPath><clipPath class="axesclip" id="clip3a6f4ey"><rect x="0" y="100" width="700" height="220"/></clipPath><clipPath class="axesclip" id="clip3a6f4exy"><rect x="80" y="100" width="540" height="220"/></clipPath></g><g class="gradients"/><g class="patterns"/></defs><g class="bglayer"><rect class="bg" x="80" y="100" width="540" height="220" style="fill: rgb(0, 0, 0); fill-opacity: 0; stroke-width: 0;"/></g><g class="layer-below"><g class="imagelayer"/><g class="shapelayer"/></g><g class="cartesianlayer"><g class="subplot xy"><g class="layer-subplot"><g class="shapelayer"/><g class="imagelayer"/></g><g class="gridlayer"><g class="x"/><g class="y"/></g><g class="zerolinelayer"/><path class="xlines-below"/><path class="ylines-below"/><g class="overlines-below"/><g class="xaxislayer-below"/><g class="yaxislayer-below"/><g class="overaxes-below"/><g class="plot" transform="translate(80,100)" clip-path="url(#clip3a6f4exyplot)"><g class="scatterlayer mlayer"><g class="trace scatter traced492cf" style="stroke-miterlimit: 2; opacity: 1;"><g class="fills"/><g class="errorbars"/><g class="lines"><path class="js-line" d="M0,22.81L3.93,24.58L5.89,24.85L7.85,24.72L9.81,25.53L13.74,24.72L15.7,25.4L19.63,25.81L21.59,25.53L25.52,25.26L27.48,25.12L29.44,24.72L31.41,25.4L45.21,23.49L47.11,22.67L51.04,23.49L53,21.59L54.96,19L56.92,18.59L58.89,18.46L60.85,19.54L76.55,31.79L78.52,32.75L88.33,38.73L90.29,40.23L94.22,39.28L96.18,40.37L100.11,44.32L102.07,44.86L104.03,45.95L106,46.08L111.89,48.13L113.85,49.35L119.74,49.76L121.7,50.58L127.59,51.8L129.62,53.3L145.32,60.38L147.28,60.24L149.25,62.14L151.21,62.42L157.1,63.1L159.06,64.73L164.95,67.72L166.91,67.59L172.8,69.77L174.77,70.72L176.73,72.22L178.69,72.49L184.58,75.48L186.54,75.35L198.32,79.97L200.28,79.7L206.17,82.02L208.14,81.88L212.06,83.51L214.02,85.83L215.99,82.83L217.95,82.29L219.91,82.15L221.88,83.51L227.76,88.55L229.79,90.18L233.65,94.13L235.62,96.44L243.47,100.12L245.43,102.02L247.39,102.7L249.36,104.61L265.06,112.5L267.02,112.37L270.95,114.41L272.91,115.77L280.76,120.53L282.73,120.4L284.69,121.89L286.65,122.3L288.62,123.53L290.58,122.85L296.47,124.34L298.43,124.89L306.28,128.7L308.31,128.56L310.27,129.92L312.24,130.33L318.12,131.83L320.09,131.97L322.05,133.33L324.01,133.73L331.86,134.96L333.83,135.64L335.79,135.78L337.75,136.73L349.53,137.55L351.49,138.77L353.46,137.95L355.42,138.23L359.35,138.63L361.31,140L365.23,140.68L367.2,140.95L371.12,140.13L373.09,140.54L377.01,141.9L378.97,141.77L380.94,142.04L382.9,141.49L384.86,142.85L386.83,145.3L388.79,144.35L390.75,138.36L392.72,138.63L394.68,140.95L396.64,140.95L398.6,141.77L402.53,144.08L404.49,144.9L408.42,152.93L410.38,155.38L414.37,157.69L416.27,160.82L418.23,161.91L420.2,164.63L422.16,164.22L424.12,166.26L428.05,168.03L430.01,169.94L431.97,171.03L433.94,170.76L437.86,174.02L439.83,176.74L441.79,176.2L443.75,179.87L447.68,181.37L449.64,180.42L451.6,180.55L453.57,182.19L455.53,182.32L457.49,184.09L459.45,182.46L461.42,183L463.38,184.37L465.34,184.37L469.27,184.64L471.23,185.73L473.2,186.54L475.16,188.72L477.12,189.81L479.08,189.54L481.11,191.17L483.01,191.44L485.04,190.9L487,192.26L488.96,191.99L490.93,194.16L492.89,196.89L494.85,197.43L502.7,200.15L504.67,202.33L512.52,206.82L514.48,206.01L520.37,206.69L522.33,208.05L526.26,208.73L528.22,209L532.15,208.18L534.11,208.59L538.04,208.73L540,209" style="vector-effect: non-scaling-stroke; fill: none; stroke: rgb(99, 110, 250); stroke-opacity: 1; stroke-width: 2px; opacity: 1;"/></g><g class="points"/><g class="text"/></g></g></g><g class="overplot"/><path class="xlines-above crisp" d="M78,321H622M78,99H622" style="fill: none; stroke-width: 2px; stroke: rgb(0, 0, 0); stroke-opacity: 1;"/><path class="ylines-above crisp" d="M79,100V320M621,100V320" style="fill: none; stroke-width: 2px; stroke: rgb(0, 0, 0); stroke-opacity: 1;"/><g class="overlines-above"/><g class="xaxislayer-above"><path class="xtick ticks crisp" d="M0,320v-5" transform="translate(158.51999999999998,0)" style="stroke: rgb(68, 68, 68); stroke-opacity: 1; stroke-width: 1px;"/><path class="xtick ticks crisp" d="M0,320v-5" transform="translate(237.03,0)" style="stroke: rgb(68, 68, 68); stroke-opacity: 1; stroke-width: 1px;"/><path class="xtick ticks crisp" d="M0,320v-5" transform="translate(315.55,0)" style="stroke: rgb(68, 68, 68); stroke-opacity: 1; stroke-width: 1px;"/><path class="xtick ticks crisp" d="M0,320v-5" transform="translate(394.07,0)" style="stroke: rgb(68, 68, 68); stroke-opacity: 1; stroke-width: 1px;"/><path class="xtick ticks crisp" d="M0,320v-5" transform="translate(472.58,0)" style="stroke: rgb(68, 68, 68); stroke-opacity: 1; stroke-width: 1px;"/><path class="xtick ticks crisp" d="M0,320v-5" transform="translate(551.1,0)" style="stroke: rgb(68, 68, 68); stroke-opacity: 1; stroke-width: 1px;"/><g class="xtick"><text text-anchor="middle" x="0" y="336.4" transform="translate(80,0)" style="font-family: 'Open Sans', verdana, arial, sans-serif; font-size: 12px; fill: rgb(42, 63, 95); fill-opacity: 1; white-space: pre; opacity: 1;">0</text></g><g class="xtick"><text text-anchor="middle" x="0" y="336.4" style="font-family: 'Open Sans', verdana, arial, sans-serif; font-size: 12px; fill: rgb(42, 63, 95); fill-opacity: 1; white-space: pre; opacity: 1;" transform="translate(158.51999999999998,0)">20</text></g><g class="xtick"><text text-anchor="middle" x="0" y="336.4" style="font-family: 'Open Sans', verdana, arial, sans-serif; font-size: 12px; fill: rgb(42, 63, 95); fill-opacity: 1; white-space: pre; opacity: 1;" transform="translate(237.03,0)">40</text></g><g class="xtick"><text text-anchor="middle" x="0" y="336.4" style="font-family: 'Open Sans', verdana, arial, sans-serif; font-size: 12px; fill: rgb(42, 63, 95); fill-opacity: 1; white-space: pre; opacity: 1;" transform="translate(315.55,0)">60</text></g><g class="xtick"><text text-anchor="middle" x="0" y="336.4" style="font-family: 'Open Sans', verdana, arial, sans-serif; font-size: 12px; fill: rgb(42, 63, 95); fill-opacity: 1; white-space: pre; opacity: 1;" transform="translate(394.07,0)">80</text></g><g class="xtick"><text text-anchor="middle" x="0" y="336.4" style="font-family: 'Open Sans', verdana, arial, sans-serif; font-size: 12px; fill: rgb(42, 63, 95); fill-opacity: 1; white-space: pre; opacity: 1;" transform="translate(472.58,0)">100</text></g><g class="xtick"><text text-anchor="middle" x="0" y="336.4" style="font-family: 'Open Sans', verdana, arial, sans-serif; font-size: 12px; fill: rgb(42, 63, 95); fill-opacity: 1; white-space: pre; opacity: 1;" transform="translate(551.1,0)">120</text></g></g><g class="yaxislayer-above"><g class="ytick"><text text-anchor="end" x="75.6" y="4.199999999999999" transform="translate(0,255.51)" style="font-family: 'Open Sans', verdana, arial, sans-serif; font-size: 12px; fill: rgb(42, 63, 95); fill-opacity: 1; white-space: pre; opacity: 1;">40</text></g><g class="ytick"><text text-anchor="end" x="75.6" y="4.199999999999999" style="font-family: 'Open Sans', verdana, arial, sans-serif; font-size: 12px; fill: rgb(42, 63, 95); fill-opacity: 1; white-space: pre; opacity: 1;" transform="translate(0,187.45999999999998)">45</text></g><g class="ytick"><text text-anchor="end" x="75.6" y="4.199999999999999" style="font-family: 'Open Sans', verdana, arial, sans-serif; font-size: 12px; fill: rgb(42, 63, 95); fill-opacity: 1; white-space: pre; opacity: 1;" transform="translate(0,119.41)">50</text></g></g><g class="overaxes-above"/></g></g><g class="polarlayer"/><g class="ternarylayer"/><g class="geolayer"/><g class="funnelarealayer"/><g class="pielayer"/><g class="iciclelayer"/><g class="treemaplayer"/><g class="sunburstlayer"/><g class="glimages"/><defs id="topdefs-3a6f4e"><g class="clips"/></defs><g class="layer-above"><g class="imagelayer"/><g class="shapelayer"><path data-index="0" fill-rule="evenodd" d="M80,320L80,100" clip-path="url(#clip3a6f4ex)" style="opacity: 1; stroke: rgb(0, 0, 0); stroke-opacity: 0; fill: rgb(0, 0, 0); fill-opacity: 0; stroke-width: 0px;"/><path data-index="1" fill-rule="evenodd" d="M134.96,320L134.96,100" clip-path="url(#clip3a6f4ex)" style="opacity: 1; stroke: rgb(0, 0, 0); stroke-opacity: 1; fill: rgb(0, 0, 0); fill-opacity: 0; stroke-dasharray: 9px, 9px; stroke-width: 0.5px;"/><path data-index="2" fill-rule="evenodd" d="M295.91999999999996,320L295.91999999999996,100" clip-path="url(#clip3a6f4ex)" style="opacity: 1; stroke: rgb(0, 0, 0); stroke-opacity: 1; fill: rgb(0, 0, 0); fill-opacity: 0; stroke-dasharray: 9px, 9px; stroke-width: 0.5px;"/><path data-index="3" fill-rule="evenodd" d="M464.73,320L464.73,100" clip-path="url(#clip3a6f4ex)" style="opacity: 1; stroke: rgb(0, 0, 0); stroke-opacity: 1; fill: rgb(0, 0, 0); fill-opacity: 0; stroke-dasharray: 9px, 9px; stroke-width: 0.5px;"/><path data-index="4" fill-rule="evenodd" d="M80,119L620,119" clip-path="url(#clip3a6f4ey)" style="opacity: 1; stroke: rgb(42, 63, 95); stroke-opacity: 1; fill: rgb(0, 0, 0); fill-opacity: 0; stroke-dasharray: 9px, 9px; stroke-width: 0.5px;"/><path data-index="5" fill-rule="evenodd" d="M80,187.45999999999998L620,187.45999999999998" clip-path="url(#clip3a6f4ey)" style="opacity: 1; stroke: rgb(42, 63, 95); stroke-opacity: 1; fill: rgb(0, 0, 0); fill-opacity: 0; stroke-dasharray: 9px, 9px; stroke-width: 0.5px;"/><path data-index="6" fill-rule="evenodd" d="M80,241.9L620,241.9" clip-path="url(#clip3a6f4ey)" style="opacity: 1; stroke: rgb(42, 63, 95); stroke-opacity: 1; fill: rgb(0, 0, 0); fill-opacity: 0; stroke-dasharray: 9px, 9px; stroke-width: 0.5px;"/><path data-index="7" fill-rule="evenodd" d="M80,309.95L620,309.95" clip-path="url(#clip3a6f4ey)" style="opacity: 1; stroke: rgb(42, 63, 95); stroke-opacity: 1; fill: rgb(0, 0, 0); fill-opacity: 0; stroke-dasharray: 9px, 9px; stroke-width: 0.5px;"/></g></g><g class="infolayer"><g class="g-gtitle"><text class="gtitle" x="35" y="50" text-anchor="start" dy="0em" style="font-family: 'Open Sans', verdana, arial, sans-serif; font-size: 17px; fill: rgb(42, 63, 95); opacity: 1; font-weight: normal; white-space: pre;">Figure 2a: Chamber Humidity vs. Time at Varying Temperatures</text></g><g class="g-xtitle"><text class="xtitle" x="350" y="364.20625" text-anchor="middle" style="font-family: 'Open Sans', verdana, arial, sans-serif; font-size: 14px; fill: rgb(42, 63, 95); opacity: 1; font-weight: normal; white-space: pre;">Elapsed Time (min)</text></g><g class="g-ytitle"><text class="ytitle" transform="rotate(-90,35.528125,210)" x="35.528125" y="210" text-anchor="middle" style="font-family: 'Open Sans', verdana, arial, sans-serif; font-size: 14px; fill: rgb(42, 63, 95); opacity: 1; font-weight: normal; white-space: pre;">Humidity (%)</text></g><g class="annotation" data-index="0" style="opacity: 1;"><g class="annotation-text-g" transform="rotate(0,100,109.5)"><g class="cursor-pointer" transform="translate(80,100)"><rect class="bg" x="0.5" y="0.5" width="39" height="18" style="stroke-width: 1px; stroke: rgb(0, 0, 0); stroke-opacity: 0; fill: rgb(0, 0, 0); fill-opacity: 0;"/><text class="annotation-text" text-anchor="middle" x="19.828125" y="14" style="font-family: 'Open Sans', verdana, arial, sans-serif; font-size: 12px; fill: rgb(42, 63, 95); fill-opacity: 1; white-space: pre;">22.3C</text></g></g></g><g class="annotation" data-index="1" style="opacity: 1;"><g class="annotation-text-g" transform="rotate(0,154.96,109.5)"><g class="cursor-pointer" transform="translate(135,100)"><rect class="bg" x="0.5" y="0.5" width="39" height="18" style="stroke-width: 1px; stroke: rgb(0, 0, 0); stroke-opacity: 0; fill: rgb(0, 0, 0); fill-opacity: 0;"/><text class="annotation-text" text-anchor="middle" x="19.828125" y="14" style="font-family: 'Open Sans', verdana, arial, sans-serif; font-size: 12px; fill: rgb(42, 63, 95); fill-opacity: 1; white-space: pre;">24.7C</text></g></g></g><g class="annotation" data-index="2" style="opacity: 1;"><g class="annotation-text-g" transform="rotate(0,315.91999999999996,109.5)"><g class="cursor-pointer" transform="translate(296,100)"><rect class="bg" x="0.5" y="0.5" width="39" height="18" style="stroke-width: 1px; stroke: rgb(0, 0, 0); stroke-opacity: 0; fill: rgb(0, 0, 0); fill-opacity: 0;"/><text class="annotation-text" text-anchor="middle" x="19.828125" y="14" style="font-family: 'Open Sans', verdana, arial, sans-serif; font-size: 12px; fill: rgb(42, 63, 95); fill-opacity: 1; white-space: pre;">26.5C</text></g></g></g><g class="annotation" data-index="3" style="opacity: 1;"><g class="annotation-text-g" transform="rotate(0,484.73,109.5)"><g class="cursor-pointer" transform="translate(465,100)"><rect class="bg" x="0.5" y="0.5" width="39" height="18" style="stroke-width: 1px; stroke: rgb(0, 0, 0); stroke-opacity: 0; fill: rgb(0, 0, 0); fill-opacity: 0;"/><text class="annotation-text" text-anchor="middle" x="19.828125" y="14" style="font-family: 'Open Sans', verdana, arial, sans-serif; font-size: 12px; fill: rgb(42, 63, 95); fill-opacity: 1; white-space: pre;">30.0C</text></g></g></g><g class="annotation" data-index="4" style="opacity: 1;"><g class="annotation-text-g" transform="rotate(0,598,109.5)"><g class="cursor-pointer" transform="translate(576,100)"><rect class="bg" x="0.5" y="0.5" width="43" height="18" style="stroke-width: 1px; stroke: rgb(0, 0, 0); stroke-opacity: 0; fill: rgb(0, 0, 0); fill-opacity: 0;"/><text class="annotation-text" text-anchor="middle" x="22.09375" y="14" style="font-family: 'Open Sans', verdana, arial, sans-serif; font-size: 12px; fill: rgb(42, 63, 95); fill-opacity: 1; white-space: pre;">50.0%</text></g></g></g><g class="annotation" data-index="5" style="opacity: 1;"><g class="annotation-text-g" transform="rotate(0,598,177.95999999999998)"><g class="cursor-pointer" transform="translate(576,168)"><rect class="bg" x="0.5" y="0.5" width="43" height="18" style="stroke-width: 1px; stroke: rgb(0, 0, 0); stroke-opacity: 0; fill: rgb(0, 0, 0); fill-opacity: 0;"/><text class="annotation-text" text-anchor="middle" x="22.09375" y="14" style="font-family: 'Open Sans', verdana, arial, sans-serif; font-size: 12px; fill: rgb(42, 63, 95); fill-opacity: 1; white-space: pre;">45.0%</text></g></g></g><g class="annotation" data-index="6" style="opacity: 1;"><g class="annotation-text-g" transform="rotate(0,598,232.4)"><g class="cursor-pointer" transform="translate(576,223)"><rect class="bg" x="0.5" y="0.5" width="43" height="18" style="stroke-width: 1px; stroke: rgb(0, 0, 0); stroke-opacity: 0; fill: rgb(0, 0, 0); fill-opacity: 0;"/><text class="annotation-text" text-anchor="middle" x="22.09375" y="14" style="font-family: 'Open Sans', verdana, arial, sans-serif; font-size: 12px; fill: rgb(42, 63, 95); fill-opacity: 1; white-space: pre;">41.0%</text></g></g></g><g class="annotation" data-index="7" style="opacity: 1;"><g class="annotation-text-g" transform="rotate(0,598,300.45)"><g class="cursor-pointer" transform="translate(576,291)"><rect class="bg" x="0.5" y="0.5" width="43" height="18" style="stroke-width: 1px; stroke: rgb(0, 0, 0); stroke-opacity: 0; fill: rgb(0, 0, 0); fill-opacity: 0;"/><text class="annotation-text" text-anchor="middle" x="22.09375" y="14" style="font-family: 'Open Sans', verdana, arial, sans-serif; font-size: 12px; fill: rgb(42, 63, 95); fill-opacity: 1; white-space: pre;">36.0%</text></g></g></g></g></svg>