<svg class="main-svg" xmlns="http://www.w3.org/2000/svg" xmlns:xlink="http://www.w3.org/1999/xlink" width="700" height="400" style="" viewBox="0 0 700 400"><rect x="0" y="0" width="700" height="400" style="fill: rgb(255, 255, 255); fill-opacity: 1;"/><defs id="defs-6ab0ac"><g class="clips"><clipPath id="clip6ab0acxyplot" class="plotclip"><rect width="540" height="220"/></clipPath><clipPath class="axesclip" id="clip6ab0acx"><rect x="80" y="0" width="540" height="400"/></clipPath><clipPath class="axesclip" id="clip6ab0acy"><rect x="0" y="100" width="700" height="220"/></clipPath><clipPath class="axesclip" id="clip6ab0acxy"><rect x="80" y="100" width="540" height="220"/></clipPath></g><g class="gradients"/><g class="patterns"/></defs><g class="bglayer"><rect class="bg" x="80" y="100" width="540" height="220" style="fill: rgb(0, 0, 0); fill-opacity: 0; stroke-width: 0;"/></g><g class="layer-below"><g class="imagelayer"/><g class="shapelayer"/></g><g class="cartesianlayer"><g class="subplot xy"><g class="layer-subplot"><g class="shapelayer"/><g class="imagelayer"/></g><g class="gridlayer"><g class="x"/><g class="y"/></g><g class="zerolinelayer"/><path class="xlines-below"/><path class="ylines-below"/><g class="overlines-below"/><g class="xaxislayer-below"/><g class="yaxislayer-below"/><g class="overaxes-below"/><g class="plot" transform="translate(80,100)" clip-path="url(#clip6ab0acxyplot)"><g class="scatterlayer mlayer"><g class="trace scatter trace48e9e6" style="stroke-miterlimit: 2; opacity: 1;"><g class="fills"/><g class="errorbars"/><g class="lines"><path class="js-line" d="M0,207.06L2.77,208.27L4.15,208.03L8.35,209L9.73,207.43L16.65,206.01L18.04,204.96L20.81,133.33L22.19,123.2L23.57,116.83L24.96,114.93L26.34,114.81L27.73,116.42L30.49,122.44L31.88,126.19L37.41,144.03L38.8,149.11L42.95,159.97L44.33,162.31L49.87,169.73L51.26,171.35L55.41,175.71L56.79,176.51L62.33,181.32L63.71,182L72.02,185.92L73.4,186.56L77.6,189.06L78.94,189.19L83.09,191.08L84.47,190.72L85.86,190.84L87.24,191.81L98.31,194.47L99.7,194.63L105.23,195.2L106.62,195.36L112.15,196.13L113.54,196.77L121.89,198.35L123.22,198.43L127.33,198.43L128.71,197.14L131.53,196.21L132.91,196.21L134.3,195.08L135.68,125.26L137.06,94.15L138.45,79.98L141.22,66.18L142.6,62.79L143.98,60.61L145.37,61.38L148.14,62.59L149.52,62.07L152.29,65.54L153.67,68.2L159.21,80.19L160.59,83.25L164.74,94.63L166.13,99.96L175.82,128.65L177.2,131.72L186.89,147.98L188.27,148.83L189.66,149.88L191.04,152.95L197.96,159.32L199.35,159.52L203.5,163.32L204.88,164.04L213.19,170.38L214.57,170.9L225.64,177.08L227.07,177.08L231.18,178.45L232.56,178.61L239.48,182.49L240.87,183.01L246.4,185.03L247.79,185.8L250.55,186.36L251.94,186.8L258.9,188.7L260.29,188.9L265.82,190.32L267.21,190.4L271.36,191.08L272.74,191.61L276.9,191.12L278.33,191.57L283.86,192.25L285.25,192.21L290.78,193.83L292.17,194.39L296.32,194.59L297.7,194.51L303.24,194.79L304.62,195.08L311.54,195.24L312.93,142.21L314.31,84.06L315.7,59.69L318.46,39.47L319.89,34.46L322.66,27.85L324.05,26.43L326.81,23.73L328.2,23.53L330.97,23.65L332.35,24.09L335.12,26.92L336.5,29.5L339.27,33.37L340.65,35.88L344.81,46.45L346.19,50.44L350.3,63.84L351.68,68.48L361.37,97.86L362.75,101.74L368.29,114L369.67,116.34L373.82,123.33L375.21,125.1L383.56,138.14L384.94,139.51L390.48,144.84L391.86,146.17L397.4,150.69L398.78,151.53L407.09,159.12L408.47,160.29L412.62,162.87L414.01,163.44L416.78,164.29L418.16,165.5L425.08,169.94L426.46,171.47L430.62,173.61L432,174.25L438.92,176.88L440.3,177.2L444.46,178.69L445.84,178.85L449.99,180.59L451.38,181.03L455.53,183.86L456.91,184.26L477.67,189.83L479.06,190.4L523.39,198.51L524.78,198.27L528.93,197.22L530.31,196.49L533.08,196.81L534.46,197.54L538.62,197.26L540,197.38" style="vector-effect: non-scaling-stroke; fill: none; stroke: rgb(0, 255, 0); stroke-opacity: 1; stroke-width: 2px; opacity: 1;"/></g><g class="points"/><g class="text"/></g></g></g><g class="overplot"/><path class="xlines-above crisp" d="M78,321H622M78,99H622" style="fill: none; stroke-width: 2px; stroke: rgb(0, 0, 0); stroke-opacity: 1;"/><path class="ylines-above crisp" d="M79,100V320M621,100V320" style="fill: none; stroke-width: 2px; stroke: rgb(0, 0, 0); stroke-opacity: 1;"/><g class="overlines-above"/><g class="xaxislayer-above"><path class="xtick ticks crisp" d="M0,320v-5" transform="translate(190.68,0)" style="stroke: rgb(68, 68, 68); stroke-opacity: 1; stroke-width: 1px;"/><path class="xtick ticks crisp" d="M0,320v-5" transform="translate(301.4,0)" style="stroke: rgb(68, 68, 68); stroke-opacity: 1; stroke-width: 1px;"/><path class="xtick ticks crisp" d="M0,320v-5" transform="translate(412.12,0)" style="stroke: rgb(68, 68, 68); stroke-opacity: 1; stroke-width: 1px;"/><path class="xtick ticks crisp" d="M0,320v-5" transform="translate(522.8399999999999,0)" style="stroke: rgb(68, 68, 68); stroke-opacity: 1; stroke-width: 1px;"/><g class="xtick"><text text-anchor="middle" x="0" y="336.4" transform="translate(79.95,0)" style="font-family: 'Open Sans', verdana, arial, sans-serif; font-size: 12px; fill: rgb(42, 63, 95); fill-opacity: 1; white-space: pre; opacity: 1;">0</text></g><g class="xtick"><text text-anchor="middle" x="0" y="336.4" style="font-family: 'Open Sans', verdana, arial, sans-serif; font-size: 12px; fill: rgb(42, 63, 95); fill-opacity: 1; white-space: pre; opacity: 1;" transform="translate(190.68,0)">40</text></g><g class="xtick"><text text-anchor="middle" x="0" y="336.4" style="font-family: 'Open Sans', verdana, arial, sans-serif; font-size: 12px; fill: rgb(42, 63, 95); fill-opacity: 1; white-space: pre; opacity: 1;" transform="translate(301.4,0)">80</text></g><g class="xtick"><text text-anchor="middle" x="0" y="336.4" style="font-family: 'Open Sans', verdana, arial, sans-serif; font-size: 12px; fill: rgb(42, 63, 95); fill-opacity: 1; white-space: pre; opacity: 1;" transform="translate(412.12,0)">120</text></g><g class="xtick"><text text-anchor="middle" x="0" y="336.4" style="font-family: 'Open Sans', verdana, arial, sans-serif; font-size: 12px; fill: rgb(42, 63, 95); fill-opacity: 1; white-space: pre; opacity: 1;" transform="translate(522.8399999999999,0)">160</text></g></g><g class="yaxislayer-above"><g class="ytick"><text text-anchor="end" x="75.6" y="4.199999999999999" transform="translate(0,301.78)" style="font-family: 'Open Sans', verdana, arial, sans-serif; font-size: 12px; fill: rgb(42, 63, 95); fill-opacity: 1; white-space: pre; opacity: 1;">30</text></g><g class="ytick"><text text-anchor="end" x="75.6" y="4.199999999999999" style="font-family: 'Open Sans', verdana, arial, sans-serif; font-size: 12px; fill: rgb(42, 63, 95); fill-opacity: 1; white-space: pre; opacity: 1;" transform="translate(0,221.07)">50</text></g><g class="ytick"><text text-anchor="end" x="75.6" y="4.199999999999999" style="font-family: 'Open Sans', verdana, arial, sans-serif; font-size: 12px; fill: rgb(42, 63, 95); fill-opacity: 1; white-space: pre; opacity: 1;" transform="translate(0,140.36)">70</text></g></g><g class="overaxes-above"/></g></g><g class="polarlayer"/><g class="ternarylayer"/><g class="geolayer"/><g class="funnelarealayer"/><g class="pielayer"/><g class="iciclelayer"/><g class="treemaplayer"/><g class="sunburstlayer"/><g class="glimages"/><defs id="topdefs-6ab0ac"><g class="clips"/></defs><g class="layer-above"><g class="imagelayer"/><g class="shapelayer"><path data-index="0" fill-rule="evenodd" d="M93.78999999999999,320L93.78999999999999,100" clip-path="url(#clip6ab0acx)" style="opacity: 1; stroke: rgb(0, 0, 0); stroke-opacity: 1; fill: rgb(0, 0, 0); fill-opacity: 0; stroke-dasharray: 9px, 9px; stroke-width: 0.5px;"/><path data-index="1" fill-rule="evenodd" d="M207.28,320L207.28,100" clip-path="url(#clip6ab0acx)" style="opacity: 1; stroke: rgb(0, 0, 0); stroke-opacity: 1; fill: rgb(0, 0, 0); fill-opacity: 0; stroke-dasharray: 9px, 9px; stroke-width: 0.5px;"/><path data-index="2" fill-rule="evenodd" d="M384.44,320L384.44,100" clip-path="url(#clip6ab0acx)" style="opacity: 1; stroke: rgb(0, 0, 0); stroke-opacity: 1; fill: rgb(0, 0, 0); fill-opacity: 0; stroke-dasharray: 9px, 9px; stroke-width: 0.5px;"/><path data-index="3" fill-rule="evenodd" d="M80,100L620,100" clip-path="url(#clip6ab0acy)" style="opacity: 1; stroke: rgb(0, 0, 0); stroke-opacity: 0; fill: rgb(0, 0, 0); fill-opacity: 0; stroke-width: 0px;"/></g></g><g class="infolayer"><g class="g-gtitle"><text class="gtitle" x="35" y="50" text-anchor="start" dy="0em" style="font-family: 'Open Sans', verdana, arial, sans-serif; font-size: 17px; fill: rgb(42, 63, 95); opacity: 1; font-weight: normal; white-space: pre;">Figure 3c: Incremental</text></g><g class="g-xtitle"><text class="xtitle" x="350" y="364.20625" text-anchor="middle" style="font-family: 'Open Sans', verdana, arial, sans-serif; font-size: 14px; fill: rgb(42, 63, 95); opacity: 1; font-weight: normal; white-space: pre;">Time (min)</text></g><g class="g-ytitle"><text class="ytitle" transform="rotate(-90,35.528125,210)" x="35.528125" y="210" text-anchor="middle" style="font-family: 'Open Sans', verdana, arial, sans-serif; font-size: 14px; fill: rgb(42, 63, 95); opacity: 1; font-weight: normal; white-space: pre;">Humidity (%)</text></g><g class="annotation" data-index="0" style="opacity: 1;"><g class="annotation-text-g" transform="rotate(0,128.29,109.5)"><g class="cursor-pointer" transform="translate(94,100)"><rect class="bg" x="0.5" y="0.5" width="68" height="18" style="stroke-width: 1px; stroke: rgb(0, 0, 0); stroke-opacity: 0; fill: rgb(0, 0, 0); fill-opacity: 0;"/><text class="annotation-text" text-anchor="middle" x="34.625" y="14" style="font-family: 'Open Sans', verdana, arial, sans-serif; font-size: 12px; fill: rgb(42, 63, 95); fill-opacity: 1; white-space: pre;">Inject 4 uL</text></g></g></g><g class="annotation" data-index="1" style="opacity: 1;"><g class="annotation-text-g" transform="rotate(0,241.78,109.5)"><g class="cursor-pointer" transform="translate(207,100)"><rect class="bg" x="0.5" y="0.5" width="68" height="18" style="stroke-width: 1px; stroke: rgb(0, 0, 0); stroke-opacity: 0; fill: rgb(0, 0, 0); fill-opacity: 0;"/><text class="annotation-text" text-anchor="middle" x="34.625" y="14" style="font-family: 'Open Sans', verdana, arial, sans-serif; font-size: 12px; fill: rgb(42, 63, 95); fill-opacity: 1; white-space: pre;">Inject 6 uL</text></g></g></g><g class="annotation" data-index="2" style="opacity: 1;"><g class="annotation-text-g" transform="rotate(0,418.94,109.5)"><g class="cursor-pointer" transform="translate(384,100)"><rect class="bg" x="0.5" y="0.5" width="68" height="18" style="stroke-width: 1px; stroke: rgb(0, 0, 0); stroke-opacity: 0; fill: rgb(0, 0, 0); fill-opacity: 0;"/><text class="annotation-text" text-anchor="middle" x="34.625" y="14" style="font-family: 'Open Sans', verdana, arial, sans-serif; font-size: 12px; fill: rgb(42, 63, 95); fill-opacity: 1; white-space: pre;">Inject 8 uL</text></g></g></g></g></svg>