<svg class="main-svg" xmlns="http://www.w3.org/2000/svg" xmlns:xlink="http://www.w3.org/1999/xlink" width="700" height="400" style="" viewBox="0 0 700 400"><rect x="0" y="0" width="700" height="400" style="fill: rgb(255, 255, 255); fill-opacity: 1;"/><defs id="defs-56911d"><g class="clips"><clipPath id="clip56911dxyplot" class="plotclip"><rect width="540" height="220"/></clipPath><clipPath class="axesclip" id="clip56911dx"><rect x="80" y="0" width="540" height="400"/></clipPath><clipPath class="axesclip" id="clip56911dy"><rect x="0" y="100" width="700" height="220"/></clipPath><clipPath class="axesclip" id="clip56911dxy"><rect x="80" y="100" width="540" height="220"/></clipPath></g><g class="gradients"/><g class="patterns"/></defs><g class="bglayer"><rect class="bg" x="80" y="100" width="540" height="220" style="fill: rgb(0, 0, 0); fill-opacity: 0; stroke-width: 0;"/></g><g class="layer-below"><g class="imagelayer"/><g class="shapelayer"/></g><g class="cartesianlayer"><g class="subplot xy"><g class="layer-subplot"><g class="shapelayer"/><g class="imagelayer"/></g><g class="gridlayer"><g class="x"/><g class="y"/></g><g class="zerolinelayer"/><path class="xlines-below"/><path class="ylines-below"/><g class="overlines-below"/><g class="xaxislayer-below"/><g class="yaxislayer-below"/><g class="overaxes-below"/><g class="plot" transform="translate(80,100)" clip-path="url(#clip56911dxyplot)"><g class="scatterlayer mlayer"><g class="trace scatter tracec9a2e4" style="stroke-miterlimit: 2; opacity: 1;"><g class="fills"/><g class="errorbars"/><g class="lines"><path class="js-line" d="M0,201.29L2.71,202.33L5.42,200.98L10.85,201.08L13.56,200.04L16.27,200.35L18.99,201.81L21.7,205.46L24.41,205.67L27.12,207.12L29.83,205.77L32.55,205.15L35.26,202.96L37.97,198.89L40.68,120.75L43.4,65.12L46.2,52.41L48.91,40.53L51.62,41.26L54.33,42.82L57.05,35.94L59.76,39.7L62.47,47.09L67.9,68.24L70.61,77.72L84.17,114.61L86.88,120.96L95.02,136.49L97.73,140.44L103.15,149.61L105.87,153.57L111.29,157.32L114,160.24L119.43,164.82L122.14,165.87L124.85,168.47L127.56,169.83L138.41,178.16L141.13,178.79L143.84,179.83L146.55,182.02L151.97,184L154.69,187.33L160.11,189.52L162.82,189L168.25,190.87L170.96,193.58L176.38,197.33L179.1,199.62L181.81,201.92L184.52,200.35L187.23,204.73L189.94,202.75L192.66,201.19L195.37,202.96L200.79,205.46L203.51,203.06L206.22,199.31L208.93,92.41L211.64,54.7L214.35,41.26L217.07,31.26L219.78,31.15L222.49,25.32L225.2,29.07L227.92,27.82L230.63,31.15L233.34,35.74L236.05,43.45L238.76,52.2L241.48,80.02L244.19,89.81L246.9,102.83L249.7,113.36L252.33,126.28L255.13,127.53L257.75,135.55L260.46,140.97L263.17,150.24L265.98,147.01L268.6,153.88L271.31,152.74L274.02,154.09L282.16,162.01L284.87,165.24L293.1,171.81L295.81,174.31L303.95,181.6L306.66,182.22L314.8,187.64L317.51,189.2L331.07,197.23L333.78,198.37L344.63,203.89L347.34,206.29L352.77,209L355.48,207.02L360.9,203.79L363.62,203.89L366.33,205.56L369.04,205.77L374.47,203.58L377.18,202.02L382.6,196.91L385.31,150.76L388.03,80.64L390.74,58.87L393.45,56.47L396.16,43.13L398.87,38.03L401.59,38.65L404.3,45.22L407.01,49.49L412.44,65.33L415.24,75.12L423.28,113.56L426,122.73L428.71,132.53L431.42,134.09L434.13,138.05L436.85,143.47L439.56,150.13L442.27,152.43L444.98,155.55L447.69,156.8L450.41,157.43L453.12,160.24L458.54,163.05L461.26,165.24L466.68,172.43L469.39,174.51L474.82,175.56L477.53,177.85L480.24,179.41L482.95,179.93L485.67,181.39L488.38,183.79L491.09,185.66L493.8,186.18L499.23,187.22L502.03,189L507.36,190.14L510.08,192.12L512.79,192.96L515.5,192.96L518.21,193.79L520.92,193.68L523.64,192.75L526.35,194L531.77,194.31L534.49,195.56L537.2,196.6L540,198.48" style="vector-effect: non-scaling-stroke; fill: none; stroke: rgb(0, 255, 0); stroke-opacity: 1; stroke-width: 2px; opacity: 1;"/></g><g class="points"/><g class="text"/></g></g></g><g class="overplot"/><path class="xlines-above crisp" d="M78,321H622M78,99H622" style="fill: none; stroke-width: 2px; stroke: rgb(0, 0, 0); stroke-opacity: 1;"/><path class="ylines-above crisp" d="M79,100V320M621,100V320" style="fill: none; stroke-width: 2px; stroke: rgb(0, 0, 0); stroke-opacity: 1;"/><g class="overlines-above"/><g class="xaxislayer-above"><path class="xtick ticks crisp" d="M0,320v-5" transform="translate(188.4,0)" style="stroke: rgb(68, 68, 68); stroke-opacity: 1; stroke-width: 1px;"/><path class="xtick ticks crisp" d="M0,320v-5" transform="translate(296.89,0)" style="stroke: rgb(68, 68, 68); stroke-opacity: 1; stroke-width: 1px;"/><path class="xtick ticks crisp" d="M0,320v-5" transform="translate(405.37,0)" style="stroke: rgb(68, 68, 68); stroke-opacity: 1; stroke-width: 1px;"/><path class="xtick ticks crisp" d="M0,320v-5" transform="translate(513.86,0)" style="stroke: rgb(68, 68, 68); stroke-opacity: 1; stroke-width: 1px;"/><g class="xtick"><text text-anchor="middle" x="0" y="336.4" transform="translate(188.4,0)" style="font-family: 'Open Sans', verdana, arial, sans-serif; font-size: 12px; fill: rgb(42, 63, 95); fill-opacity: 1; white-space: pre; opacity: 1;">20</text></g><g class="xtick"><text text-anchor="middle" x="0" y="336.4" style="font-family: 'Open Sans', verdana, arial, sans-serif; font-size: 12px; fill: rgb(42, 63, 95); fill-opacity: 1; white-space: pre; opacity: 1;" transform="translate(296.89,0)">40</text></g><g class="xtick"><text text-anchor="middle" x="0" y="336.4" style="font-family: 'Open Sans', verdana, arial, sans-serif; font-size: 12px; fill: rgb(42, 63, 95); fill-opacity: 1; white-space: pre; opacity: 1;" transform="translate(405.37,0)">60</text></g><g class="xtick"><text text-anchor="middle" x="0" y="336.4" style="font-family: 'Open Sans', verdana, arial, sans-serif; font-size: 12px; fill: rgb(42, 63, 95); fill-opacity: 1; white-space: pre; opacity: 1;" transform="translate(513.86,0)">80</text></g></g><g class="yaxislayer-above"><g class="ytick"><text text-anchor="end" x="75.6" y="4.199999999999999" transform="translate(0,277.12)" style="font-family: 'Open Sans', verdana, arial, sans-serif; font-size: 12px; fill: rgb(42, 63, 95); fill-opacity: 1; white-space: pre; opacity: 1;">45</text></g><g class="ytick"><text text-anchor="end" x="75.6" y="4.199999999999999" style="font-family: 'Open Sans', verdana, arial, sans-serif; font-size: 12px; fill: rgb(42, 63, 95); fill-opacity: 1; white-space: pre; opacity: 1;" transform="translate(0,225.01999999999998)">50</text></g><g class="ytick"><text text-anchor="end" x="75.6" y="4.199999999999999" style="font-family: 'Open Sans', verdana, arial, sans-serif; font-size: 12px; fill: rgb(42, 63, 95); fill-opacity: 1; white-space: pre; opacity: 1;" transform="translate(0,172.93)">55</text></g><g class="ytick"><text text-anchor="end" x="75.6" y="4.199999999999999" style="font-family: 'Open Sans', verdana, arial, sans-serif; font-size: 12px; fill: rgb(42, 63, 95); fill-opacity: 1; white-space: pre; opacity: 1;" transform="translate(0,120.84)">60</text></g></g><g class="overaxes-above"/></g></g><g class="polarlayer"/><g class="ternarylayer"/><g class="geolayer"/><g class="funnelarealayer"/><g class="pielayer"/><g class="iciclelayer"/><g class="treemaplayer"/><g class="sunburstlayer"/><g class="glimages"/><defs id="topdefs-56911d"><g class="clips"/></defs><g class="layer-above"><g class="imagelayer"/><g class="shapelayer"><path data-index="0" fill-rule="evenodd" d="M107.03,320L107.03,100" clip-path="url(#clip56911dx)" style="opacity: 1; stroke: rgb(0, 0, 0); stroke-opacity: 1; fill: rgb(0, 0, 0); fill-opacity: 0; stroke-dasharray: 9px, 9px; stroke-width: 0.5px;"/><path data-index="1" fill-rule="evenodd" d="M269.76,320L269.76,100" clip-path="url(#clip56911dx)" style="opacity: 1; stroke: rgb(0, 0, 0); stroke-opacity: 1; fill: rgb(0, 0, 0); fill-opacity: 0; stroke-dasharray: 9px, 9px; stroke-width: 0.5px;"/><path data-index="2" fill-rule="evenodd" d="M443.35,320L443.35,100" clip-path="url(#clip56911dx)" style="opacity: 1; stroke: rgb(0, 0, 0); stroke-opacity: 1; fill: rgb(0, 0, 0); fill-opacity: 0; stroke-dasharray: 9px, 9px; stroke-width: 0.5px;"/><path data-index="3" fill-rule="evenodd" d="M80,100L620,100" clip-path="url(#clip56911dy)" style="opacity: 1; stroke: rgb(0, 0, 0); stroke-opacity: 0; fill: rgb(0, 0, 0); fill-opacity: 0; stroke-width: 0px;"/></g></g><g class="infolayer"><g class="g-gtitle"><text class="gtitle" x="35" y="50" text-anchor="start" dy="0em" style="font-family: 'Open Sans', verdana, arial, sans-serif; font-size: 17px; fill: rgb(42, 63, 95); opacity: 1; font-weight: normal; white-space: pre;">Figure 3b: Fixed</text></g><g class="g-xtitle"><text class="xtitle" x="350" y="364.20625" text-anchor="middle" style="font-family: 'Open Sans', verdana, arial, sans-serif; font-size: 14px; fill: rgb(42, 63, 95); opacity: 1; font-weight: normal; white-space: pre;">Time (min)</text></g><g class="g-ytitle"><text class="ytitle" transform="rotate(-90,35.528125,210)" x="35.528125" y="210" text-anchor="middle" style="font-family: 'Open Sans', verdana, arial, sans-serif; font-size: 14px; fill: rgb(42, 63, 95); opacity: 1; font-weight: normal; white-space: pre;">Humidity (%)</text></g><g class="annotation" data-index="0" style="opacity: 1;"><g class="annotation-text-g" transform="rotate(0,141.53,109.5)"><g class="cursor-pointer" transform="translate(107,100)"><rect class="bg" x="0.5" y="0.5" width="68" height="18" style="stroke-width: 1px; stroke: rgb(0, 0, 0); stroke-opacity: 0; fill: rgb(0, 0, 0); fill-opacity: 0;"/><text class="annotation-text" text-anchor="middle" x="34.625" y="14" style="font-family: 'Open Sans', verdana, arial, sans-serif; font-size: 12px; fill: rgb(42, 63, 95); fill-opacity: 1; white-space: pre;">Inject 2 uL</text></g></g></g><g class="annotation" data-index="1" style="opacity: 1;"><g class="annotation-text-g" transform="rotate(0,304.26,109.5)"><g class="cursor-pointer" transform="translate(270,100)"><rect class="bg" x="0.5" y="0.5" width="68" height="18" style="stroke-width: 1px; stroke: rgb(0, 0, 0); stroke-opacity: 0; fill: rgb(0, 0, 0); fill-opacity: 0;"/><text class="annotation-text" text-anchor="middle" x="34.625" y="14" style="font-family: 'Open Sans', verdana, arial, sans-serif; font-size: 12px; fill: rgb(42, 63, 95); fill-opacity: 1; white-space: pre;">Inject 2 uL</text></g></g></g><g class="annotation" data-index="2" style="opacity: 1;"><g class="annotation-text-g" transform="rotate(0,477.85,109.5)"><g class="cursor-pointer" transform="translate(443,100)"><rect class="bg" x="0.5" y="0.5" width="68" height="18" style="stroke-width: 1px; stroke: rgb(0, 0, 0); stroke-opacity: 0; fill: rgb(0, 0, 0); fill-opacity: 0;"/><text class="annotation-text" text-anchor="middle" x="34.625" y="14" style="font-family: 'Open Sans', verdana, arial, sans-serif; font-size: 12px; fill: rgb(42, 63, 95); fill-opacity: 1; white-space: pre;">Inject 2 uL</text></g></g></g></g></svg>