<svg class="main-svg" xmlns="http://www.w3.org/2000/svg" xmlns:xlink="http://www.w3.org/1999/xlink" width="700" height="800" style="" viewBox="0 0 700 800"><rect x="0" y="0" width="700" height="800" style="fill: rgb(255, 255, 255); fill-opacity: 1;"/><defs id="defs-890b66"><g class="clips"><clipPath id="clip890b66xyplot" class="plotclip"><rect width="420" height="120.12499999999999"/></clipPath><clipPath id="clip890b66x2y2plot" class="plotclip"><rect width="420" height="120.12499999999999"/></clipPath><clipPath id="clip890b66x3y3plot" class="plotclip"><rect width="420" height="120.12500000000001"/></clipPath><clipPath id="clip890b66x4y4plot" class="plotclip"><rect width="420" height="120.125"/></clipPath><clipPath class="axesclip" id="clip890b66x"><rect x="80" y="0" width="420" height="800"/></clipPath><clipPath class="axesclip" id="clip890b66y"><rect x="0" y="100" width="700" height="120.12499999999999"/></clipPath><clipPath class="axesclip" id="clip890b66xy"><rect x="80" y="100" width="420" height="120.12499999999999"/></clipPath><clipPath class="axesclip" id="clip890b66y2"><rect x="0" y="266.625" width="700" height="120.12499999999999"/></clipPath><clipPath class="axesclip" id="clip890b66xy2"><rect x="80" y="266.625" width="420" height="120.12499999999999"/></clipPath><clipPath class="axesclip" id="clip890b66y3"><rect x="0" y="433.25" width="700" height="120.12500000000001"/></clipPath><clipPath class="axesclip" id="clip890b66xy3"><rect x="80" y="433.25" width="420" height="120.12500000000001"/></clipPath><clipPath class="axesclip" id="clip890b66y4"><rect x="0" y="599.875" width="700" height="120.125"/></clipPath><clipPath class="axesclip" id="clip890b66xy4"><rect x="80" y="599.875" width="420" height="120.125"/></clipPath><clipPath class="axesclip" id="clip890b66x2"><rect x="80" y="0" width="420" height="800"/></clipPath><clipPath class="axesclip" id="clip890b66x2y"><rect x="80" y="100" width="420" height="120.12499999999999"/></clipPath><clipPath class="axesclip" id="clip890b66x2y2"><rect x="80" y="266.625" width="420" height="120.12499999999999"/></clipPath><clipPath class="axesclip" id="clip890b66x2y3"><rect x="80" y="433.25" width="420" height="120.12500000000001"/></clipPath><clipPath class="axesclip" id="clip890b66x2y4"><rect x="80" y="599.875" width="420" height="120.125"/></clipPath><clipPath class="axesclip" id="clip890b66x3"><rect x="80" y="0" width="420" height="800"/></clipPath><clipPath class="axesclip" id="clip890b66x3y"><rect x="80" y="100" width="420" height="120.12499999999999"/></clipPath><clipPath class="axesclip" id="clip890b66x3y2"><rect x="80" y="266.625" width="420" height="120.12499999999999"/></clipPath><clipPath class="axesclip" id="clip890b66x3y3"><rect x="80" y="433.25" width="420" height="120.12500000000001"/></clipPath><clipPath class="axesclip" id="clip890b66x3y4"><rect x="80" y="599.875" width="420" height="120.125"/></clipPath><clipPath class="axesclip" id="clip890b66x4"><rect x="80" y="0" width="420" height="800"/></clipPath><clipPath class="axesclip" id="clip890b66x4y"><rect x="80" y="100" width="420" height="120.12499999999999"/></clipPath><clipPath class="axesclip" id="clip890b66x4y2"><rect x="80" y="266.625" width="420" height="120.12499999999999"/></clipPath><clipPath class="axesclip" id="clip890b66x4y3"><rect x="80" y="433.25" width="420" height="120.12500000000001"/></clipPath><clipPath class="axesclip" id="clip890b66x4y4"><rect x="80" y="599.875" width="420" height="120.125"/></clipPath></g><g class="gradients"/><g class="patterns"/></defs><g class="bglayer"><rect class="bg" x="80" y="100" width="420" height="120.12499999999999" style="fill: rgb(0, 0, 0); fill-opacity: 0; stroke-width: 0;"/><rect class="bg" x="80" y="266.625" width="420" height="120.12499999999999" style="fill: rgb(0, 0, 0); fill-opacity: 0; stroke-width: 0;"/><rect class="bg" x="80" y="433.25" width="420" height="120.12500000000001" style="fill: rgb(0, 0, 0); fill-opacity: 0; stroke-width: 0;"/><rect class="bg" x="80" y="599.875" width="420" height="120.125" style="fill: rgb(0, 0, 0); fill-opacity: 0; stroke-width: 0;"/></g><g class="layer-below"><g class="imagelayer"/><g class="shapelayer"/></g><g class="cartesianlayer"><g class="subplot xy"><g class="layer-subplot"><g class="shapelayer"/><g class="imagelayer"/></g><g class="gridlayer"><g class="x"/><g class="y"/></g><g class="zerolinelayer"><path class="yzl zl crisp" transform="translate(0,214.12)" d="M80,0h420" style="stroke: rgb(255, 255, 255); stroke-opacity: 1; stroke-width: 2px;"/></g><path class="xlines-below"/><path class="ylines-below"/><g class="overlines-below"/><g class="xaxislayer-below"/><g class="yaxislayer-below"/><g class="overaxes-below"/><g class="plot" transform="translate(80,100)" clip-path="url(#clip890b66xyplot)"><g class="scatterlayer mlayer"><g class="trace scatter trace71ad23" style="stroke-miterlimit: 2; opacity: 1;"><g class="fills"/><g class="errorbars"/><g class="lines"><path class="js-line" d="M1.26,114.12L211.31,114.12L212.77,6.01L345.53,6.01L346.99,114.12L406.78,114.12" style="vector-effect: non-scaling-stroke; fill: none; stroke: rgb(99, 110, 250); stroke-opacity: 1; stroke-width: 2px; opacity: 1;"/></g><g class="points"/><g class="text"/></g></g></g><g class="overplot"/><path class="xlines-above crisp" d="M78,221.125H502M78,99H502" style="fill: none; stroke-width: 2px; stroke: rgb(0, 0, 0); stroke-opacity: 1;"/><path class="ylines-above crisp" d="M79,100V220.125M501,100V220.125" style="fill: none; stroke-width: 2px; stroke: rgb(0, 0, 0); stroke-opacity: 1;"/><g class="overlines-above"/><g class="xaxislayer-above"><path class="xtick ticks crisp" d="M0,220.125v-5" transform="translate(225.83,0)" style="stroke: rgb(68, 68, 68); stroke-opacity: 1; stroke-width: 1px;"/><path class="xtick ticks crisp" d="M0,220.125v-5" transform="translate(371.67,0)" style="stroke: rgb(68, 68, 68); stroke-opacity: 1; stroke-width: 1px;"/></g><g class="yaxislayer-above"><g class="ytick"><text text-anchor="end" x="75.6" y="4.199999999999999" transform="translate(0,214.12)" style="font-family: 'Open Sans', verdana, arial, sans-serif; font-size: 12px; fill: rgb(42, 63, 95); fill-opacity: 1; white-space: pre; opacity: 1;">0</text></g><g class="ytick"><text text-anchor="end" x="75.6" y="4.199999999999999" style="font-family: 'Open Sans', verdana, arial, sans-serif; font-size: 12px; fill: rgb(42, 63, 95); fill-opacity: 1; white-space: pre; opacity: 1;" transform="translate(0,183.23000000000002)">1</text></g><g class="ytick"><text text-anchor="end" x="75.6" y="4.199999999999999" style="font-family: 'Open Sans', verdana, arial, sans-serif; font-size: 12px; fill: rgb(42, 63, 95); fill-opacity: 1; white-space: pre; opacity: 1;" transform="translate(0,152.34)">2</text></g><g class="ytick"><text text-anchor="end" x="75.6" y="4.199999999999999" style="font-family: 'Open Sans', verdana, arial, sans-serif; font-size: 12px; fill: rgb(42, 63, 95); fill-opacity: 1; white-space: pre; opacity: 1;" transform="translate(0,121.45)">3</text></g></g><g class="overaxes-above"/></g><g class="subplot x2y2"><g class="layer-subplot"><g class="shapelayer"/><g class="imagelayer"/></g><g class="gridlayer"><g class="x2"/><g class="y2"/></g><g class="zerolinelayer"/><path class="xlines-below"/><path class="ylines-below"/><g class="overlines-below"/><g class="xaxislayer-below"/><g class="yaxislayer-below"/><g class="overaxes-below"/><g class="plot" transform="translate(80,266.625)" clip-path="url(#clip890b66x2y2plot)"><g class="scatterlayer mlayer"><g class="trace scatter tracee2949d" style="stroke-miterlimit: 2; opacity: 1;"><g class="fills"/><g class="errorbars"/><g class="lines"><path class="js-line" d="M0,68.01L2.92,82.32L5.83,83.91L8.75,85.5L11.67,64.83L14.58,52.11L17.5,60.06L20.42,93.45L23.33,91.86L26.25,96.63L29.17,90.27L32.08,98.22L35,95.04L40.83,112.53L43.75,114.12L46.67,102.99L49.58,96.63L52.5,101.4L55.42,99.81L58.33,98.22L61.25,104.58L64.17,101.4L67.08,99.81L70,102.99L72.92,96.63L75.83,85.5L78.75,95.04L81.67,96.63L84.58,107.76L87.5,104.58L90.42,99.81L93.33,99.81L96.25,104.58L99.17,101.4L102.08,99.81L105,109.35L107.92,109.35L110.83,107.76L113.75,110.94L116.67,104.58L119.58,79.14L125.42,91.86L128.33,95.04L131.25,99.81L134.17,107.76L137.08,107.76L140,106.17L142.92,106.17L145.83,107.76L148.75,109.35L151.67,114.12L157.5,104.58L160.42,110.94L163.33,112.53L166.25,109.35L169.17,95.04L172.08,99.81L175,107.76L177.92,107.76L180.83,106.17L183.75,106.17L189.58,109.35L192.5,114.12L198.33,104.58L201.25,110.94L204.17,112.53L207.08,109.35L210,99.81L212.92,37.8L215.83,37.8L218.75,42.57L224.58,36.21L227.5,42.57L233.33,31.44L236.25,28.26L239.17,31.44L242.08,28.26L245,28.26L247.92,34.62L250.83,23.5L253.75,21.91L256.67,26.67L259.58,29.85L262.5,20.32L265.42,20.32L268.33,28.26L271.25,20.32L274.17,18.73L277.08,20.32L280,20.32L282.92,21.91L285.83,23.5L288.75,18.73L291.67,17.14L294.58,13.96L297.5,15.55L300.42,12.37L303.33,15.55L306.25,17.14L309.17,15.55L312.08,15.55L315,13.96L317.92,6.01L320.83,13.96L323.75,17.14L326.67,12.37L329.58,13.96L332.5,13.96L335.42,12.37L338.33,10.78L341.25,12.37L344.17,9.19L347.08,29.85L350,68.01L352.92,87.09L355.83,93.45L358.75,96.63L361.67,91.86L364.58,95.04L367.5,99.81L370.42,102.99L373.33,101.4L376.25,95.04L379.17,98.22L382.08,99.81L387.92,106.17L390.83,99.81L393.75,102.99L396.67,104.58L399.58,107.76L402.5,106.17L405.42,93.45L408.33,95.04L411.25,106.17L414.17,98.22L417.08,104.58L420,98.22" style="vector-effect: non-scaling-stroke; fill: none; stroke: rgb(239, 85, 59); stroke-opacity: 1; stroke-width: 2px; opacity: 1;"/></g><g class="points"/><g class="text"/></g></g></g><g class="overplot"/><path class="xlines-above crisp" d="M78,387.75H502M78,265.625H502" style="fill: none; stroke-width: 2px; stroke: rgb(0, 0, 0); stroke-opacity: 1;"/><path class="ylines-above crisp" d="M79,266.625V386.75M501,266.625V386.75" style="fill: none; stroke-width: 2px; stroke: rgb(0, 0, 0); stroke-opacity: 1;"/><g class="overlines-above"/><g class="xaxislayer-above"><path class="x2tick ticks crisp" d="M0,386.75v-5" transform="translate(225.83,0)" style="stroke: rgb(68, 68, 68); stroke-opacity: 1; stroke-width: 1px;"/><path class="x2tick ticks crisp" d="M0,386.75v-5" transform="translate(371.67,0)" style="stroke: rgb(68, 68, 68); stroke-opacity: 1; stroke-width: 1px;"/></g><g class="yaxislayer-above"><g class="y2tick"><text text-anchor="end" x="75.6" y="4.199999999999999" transform="translate(0,369.615)" style="font-family: 'Open Sans', verdana, arial, sans-serif; font-size: 12px; fill: rgb(42, 63, 95); fill-opacity: 1; white-space: pre; opacity: 1;">60</text></g><g class="y2tick"><text text-anchor="end" x="75.6" y="4.199999999999999" style="font-family: 'Open Sans', verdana, arial, sans-serif; font-size: 12px; fill: rgb(42, 63, 95); fill-opacity: 1; white-space: pre; opacity: 1;" transform="translate(0,337.815)">80</text></g><g class="y2tick"><text text-anchor="end" x="75.6" y="4.199999999999999" style="font-family: 'Open Sans', verdana, arial, sans-serif; font-size: 12px; fill: rgb(42, 63, 95); fill-opacity: 1; white-space: pre; opacity: 1;" transform="translate(0,306.015)">100</text></g><g class="y2tick"><text text-anchor="end" x="75.6" y="4.199999999999999" style="font-family: 'Open Sans', verdana, arial, sans-serif; font-size: 12px; fill: rgb(42, 63, 95); fill-opacity: 1; white-space: pre; opacity: 1;" transform="translate(0,274.225)">120</text></g></g><g class="overaxes-above"/></g><g class="subplot x3y3"><g class="layer-subplot"><g class="shapelayer"/><g class="imagelayer"/></g><g class="gridlayer"><g class="x3"/><g class="y3"/></g><g class="zerolinelayer"><path class="y3zl zl crisp" transform="translate(0,547.37)" d="M80,0h420" style="stroke: rgb(255, 255, 255); stroke-opacity: 1; stroke-width: 2px;"/></g><path class="xlines-below"/><path class="ylines-below"/><g class="overlines-below"/><g class="xaxislayer-below"/><g class="yaxislayer-below"/><g class="overaxes-below"/><g class="plot" transform="translate(80,433.25)" clip-path="url(#clip890b66x3y3plot)"><g class="scatterlayer mlayer"><g class="trace scatter trace7d5872" style="stroke-miterlimit: 2; opacity: 1;"><g class="fills"/><g class="errorbars"/><g class="lines"><path class="js-line" d="M0,114.12L282.92,114.12L282.92,103.72L294.58,85.7L300.42,71.15L306.25,66.3L315,53.13L326.67,36.5L335.42,28.18L341.25,19.87L344.17,14.32L350,6.01L355.83,7.39L367.5,12.94L379.17,28.88L390.83,49.67L399.58,58.68L405.42,65.61" style="vector-effect: non-scaling-stroke; fill: none; stroke: rgb(0, 204, 150); stroke-opacity: 1; stroke-width: 2px; opacity: 1;"/></g><g class="points"/><g class="text"/></g></g></g><g class="overplot"/><path class="xlines-above crisp" d="M78,554.375H502M78,432.25H502" style="fill: none; stroke-width: 2px; stroke: rgb(0, 0, 0); stroke-opacity: 1;"/><path class="ylines-above crisp" d="M79,433.25V553.375M501,433.25V553.375" style="fill: none; stroke-width: 2px; stroke: rgb(0, 0, 0); stroke-opacity: 1;"/><g class="overlines-above"/><g class="xaxislayer-above"><path class="x3tick ticks crisp" d="M0,553.375v-5" transform="translate(225.83,0)" style="stroke: rgb(68, 68, 68); stroke-opacity: 1; stroke-width: 1px;"/><path class="x3tick ticks crisp" d="M0,553.375v-5" transform="translate(371.67,0)" style="stroke: rgb(68, 68, 68); stroke-opacity: 1; stroke-width: 1px;"/></g><g class="yaxislayer-above"><g class="y3tick"><text text-anchor="end" x="75.6" y="4.199999999999999" transform="translate(0,547.37)" style="font-family: 'Open Sans', verdana, arial, sans-serif; font-size: 12px; fill: rgb(42, 63, 95); fill-opacity: 1; white-space: pre; opacity: 1;">0</text></g><g class="y3tick"><text text-anchor="end" x="75.6" y="4.199999999999999" style="font-family: 'Open Sans', verdana, arial, sans-serif; font-size: 12px; fill: rgb(42, 63, 95); fill-opacity: 1; white-space: pre; opacity: 1;" transform="translate(0,508.32)">2000</text></g><g class="y3tick"><text text-anchor="end" x="75.6" y="4.199999999999999" style="font-family: 'Open Sans', verdana, arial, sans-serif; font-size: 12px; fill: rgb(42, 63, 95); fill-opacity: 1; white-space: pre; opacity: 1;" transform="translate(0,469.28)">4000</text></g></g><g class="overaxes-above"/></g><g class="subplot x4y4"><g class="layer-subplot"><g class="shapelayer"/><g class="imagelayer"/></g><g class="gridlayer"><g class="x4"/><g class="y4"/></g><g class="zerolinelayer"/><path class="xlines-below"/><path class="ylines-below"/><g class="overlines-below"/><g class="xaxislayer-below"/><g class="yaxislayer-below"/><g class="overaxes-below"/><g class="plot" transform="translate(80,599.875)" clip-path="url(#clip890b66x4y4plot)"><g class="scatterlayer mlayer"><g class="trace scatter tracede0415" style="stroke-miterlimit: 2; opacity: 1;"><g class="fills"/><g class="errorbars"/><g class="lines"><path class="js-line" d="M1.26,36.4L8.56,40.91L10.01,41.5L14.39,42.03L15.85,40.28L17.31,37.76L18.76,19.96L20.22,6.87L21.68,6.01L28.97,21.75L30.43,23.97L31.89,26.06L33.35,25.56L36.26,34.41L37.72,39.71L40.64,48.03L42.1,51.08L46.47,57.31L47.93,58.67L50.85,61.72L52.31,62.78L58.14,67.75L59.6,68.71L68.35,74.91L69.81,76.2L75.64,78.06L77.1,78.99L87.31,84.06L88.76,85.38L90.22,87.24L91.68,87.7L93.14,88.3L94.6,87.6L97.51,88L98.97,88.63L107.72,92.48L109.18,93.44L117.93,98.08L119.44,98.67L122.31,99.64L123.81,100.53L126.73,99.73L128.19,99.64L131.1,100L132.56,100.07L144.23,102.82L145.69,103.35L150.06,103.41L151.52,102.68L154.44,101.76L155.9,102.42L161.73,105.1L163.19,106.4L167.56,108.48L169.02,108.19L173.35,109.55L174.81,110.34L177.72,110.77L179.18,110.57L180.64,109.61L182.1,110.17L185.01,109.84L186.47,110.71L189.39,111.9L190.9,111.73L195.27,112.43L196.73,112.63L198.19,112.06L199.65,112.46L201.1,112.46L202.56,111.47L205.48,110.84L206.94,110.67L211.31,111.47L212.77,111.63L215.69,111.24L217.15,110.74L218.6,110.94L220.06,109.94L221.52,109.58L222.98,110.44L227.35,113.42L228.81,113.89L233.19,113.95L234.65,113.56L241.94,113.03L243.4,112.49L244.85,112.13L246.31,110.74L247.77,109.91L249.23,110.11L252.15,108.72L253.6,108.68L256.52,107.69L257.98,106.33L266.78,103.58L268.19,102.75L276.94,98.48L278.4,96.52L279.85,95.89L281.31,94.03L285.69,85.71L287.15,83.58L309.02,51.09L310.48,49.33L317.77,42.04L319.23,40.9L323.65,38.15L325.11,38.32L328.03,36.63L329.49,35.6L333.86,34.11L335.32,33.98L336.78,32.79L338.24,32.72L342.61,28.54L344.07,27.68L351.36,22.41L352.82,22.68L355.74,24.27L357.19,26.06L363.03,30.7L364.49,31.69L371.78,34.58L373.24,36.17L374.69,37.19L376.15,36.86L381.99,36.56L383.44,38.09L387.82,48.66L389.28,49.89L398.03,57.97L399.49,59.86L403.86,64.21L405.32,65.4L406.78,66.36" style="vector-effect: non-scaling-stroke; fill: none; stroke: rgb(171, 99, 250); stroke-opacity: 1; stroke-width: 2px; opacity: 1;"/></g><g class="points"/><g class="text"/></g></g></g><g class="overplot"/><path class="xlines-above crisp" d="M78,721H502M78,598.875H502" style="fill: none; stroke-width: 2px; stroke: rgb(0, 0, 0); stroke-opacity: 1;"/><path class="ylines-above crisp" d="M79,599.875V720M501,599.875V720" style="fill: none; stroke-width: 2px; stroke: rgb(0, 0, 0); stroke-opacity: 1;"/><g class="overlines-above"/><g class="xaxislayer-above"><path class="x4tick ticks crisp" d="M0,720v-5" transform="translate(225.83,0)" style="stroke: rgb(68, 68, 68); stroke-opacity: 1; stroke-width: 1px;"/><path class="x4tick ticks crisp" d="M0,720v-5" transform="translate(371.67,0)" style="stroke: rgb(68, 68, 68); stroke-opacity: 1; stroke-width: 1px;"/><g class="x4tick"><text text-anchor="middle" x="0" y="736.4" transform="translate(80,0)" style="font-family: 'Open Sans', verdana, arial, sans-serif; font-size: 12px; fill: rgb(42, 63, 95); fill-opacity: 1; white-space: pre; opacity: 1;">0</text></g><g class="x4tick"><text text-anchor="middle" x="0" y="736.4" style="font-family: 'Open Sans', verdana, arial, sans-serif; font-size: 12px; fill: rgb(42, 63, 95); fill-opacity: 1; white-space: pre; opacity: 1;" transform="translate(225.83,0)">50</text></g><g class="x4tick"><text text-anchor="middle" x="0" y="736.4" style="font-family: 'Open Sans', verdana, arial, sans-serif; font-size: 12px; fill: rgb(42, 63, 95); fill-opacity: 1; white-space: pre; opacity: 1;" transform="translate(371.67,0)">100</text></g></g><g class="yaxislayer-above"><g class="y4tick"><text text-anchor="end" x="75.6" y="4.199999999999999" transform="translate(0,699.045)" style="font-family: 'Open Sans', verdana, arial, sans-serif; font-size: 12px; fill: rgb(42, 63, 95); fill-opacity: 1; white-space: pre; opacity: 1;">40</text></g><g class="y4tick"><text text-anchor="end" x="75.6" y="4.199999999999999" style="font-family: 'Open Sans', verdana, arial, sans-serif; font-size: 12px; fill: rgb(42, 63, 95); fill-opacity: 1; white-space: pre; opacity: 1;" transform="translate(0,665.905)">50</text></g><g class="y4tick"><text text-anchor="end" x="75.6" y="4.199999999999999" style="font-family: 'Open Sans', verdana, arial, sans-serif; font-size: 12px; fill: rgb(42, 63, 95); fill-opacity: 1; white-space: pre; opacity: 1;" transform="translate(0,632.765)">60</text></g></g><g class="overaxes-above"/></g></g><g class="polarlayer"/><g class="ternarylayer"/><g class="geolayer"/><g class="funnelarealayer"/><g class="pielayer"/><g class="iciclelayer"/><g class="treemaplayer"/><g class="sunburstlayer"/><g class="glimages"/><defs id="topdefs-890b66"><g class="clips"/><clipPath id="legend890b66"><rect width="180" height="105" x="0" y="0"/></clipPath></defs><g class="layer-above"><g class="imagelayer"/><g class="shapelayer"/></g><g class="infolayer"><g class="legend" pointer-events="all" transform="translate(508.40000000000003,100)"><rect class="bg" shape-rendering="crispEdges" style="stroke: rgb(68, 68, 68); stroke-opacity: 1; fill: rgb(255, 255, 255); fill-opacity: 1; stroke-width: 0px;" width="180" height="105" x="0" y="0"/><g class="scrollbox" transform="" clip-path="url(#legend890b66)"><text class="legendtitletext" text-anchor="start" x="2" y="18.2" style="font-family: 'Open Sans', verdana, arial, sans-serif; font-size: 14px; fill: rgb(42, 63, 95); fill-opacity: 1; white-space: pre;">Legend</text><g class="groups"><g class="traces" transform="translate(0,32.7)" style="opacity: 1;"><text class="legendtext" text-anchor="start" x="40" y="4.680000000000001" style="font-family: 'Open Sans', verdana, arial, sans-serif; font-size: 12px; fill: rgb(42, 63, 95); fill-opacity: 1; white-space: pre;">Walking Speed (mph)</text><g class="layers" style="opacity: 1;"><g class="legendfill"/><g class="legendlines"><path class="js-line" d="M5,0h30" style="fill: none; stroke: rgb(99, 110, 250); stroke-opacity: 1; stroke-width: 2px;"/></g><g class="legendsymbols"><g class="legendpoints"/></g></g><rect class="legendtoggle" x="0" y="-9.5" width="174.703125" height="19" style="fill: rgb(0, 0, 0); fill-opacity: 0;"/></g><g class="traces" transform="translate(0,51.7)" style="opacity: 1;"><text class="legendtext" text-anchor="start" x="40" y="4.680000000000001" style="font-family: 'Open Sans', verdana, arial, sans-serif; font-size: 12px; fill: rgb(42, 63, 95); fill-opacity: 1; white-space: pre;">HeartRate (bpm)</text><g class="layers" style="opacity: 1;"><g class="legendfill"/><g class="legendlines"><path class="js-line" d="M5,0h30" style="fill: none; stroke: rgb(239, 85, 59); stroke-opacity: 1; stroke-width: 2px;"/></g><g class="legendsymbols"><g class="legendpoints"/></g></g><rect class="legendtoggle" x="0" y="-9.5" width="174.703125" height="19" style="fill: rgb(0, 0, 0); fill-opacity: 0;"/></g><g class="traces" transform="translate(0,70.7)" style="opacity: 1;"><text class="legendtext" text-anchor="start" x="40" y="4.680000000000001" style="font-family: 'Open Sans', verdana, arial, sans-serif; font-size: 12px; fill: rgb(42, 63, 95); fill-opacity: 1; white-space: pre;">Sweat Volume</text><g class="layers" style="opacity: 1;"><g class="legendfill"/><g class="legendlines"><path class="js-line" d="M5,0h30" style="fill: none; stroke: rgb(0, 204, 150); stroke-opacity: 1; stroke-width: 2px;"/></g><g class="legendsymbols"><g class="legendpoints"/></g></g><rect class="legendtoggle" x="0" y="-9.5" width="174.703125" height="19" style="fill: rgb(0, 0, 0); fill-opacity: 0;"/></g><g class="traces" transform="translate(0,89.7)" style="opacity: 1;"><text class="legendtext" text-anchor="start" x="40" y="4.680000000000001" style="font-family: 'Open Sans', verdana, arial, sans-serif; font-size: 12px; fill: rgb(42, 63, 95); fill-opacity: 1; white-space: pre;">Relative Humidity (%)</text><g class="layers" style="opacity: 1;"><g class="legendfill"/><g class="legendlines"><path class="js-line" d="M5,0h30" style="fill: none; stroke: rgb(171, 99, 250); stroke-opacity: 1; stroke-width: 2px;"/></g><g class="legendsymbols"><g class="legendpoints"/></g></g><rect class="legendtoggle" x="0" y="-9.5" width="174.703125" height="19" style="fill: rgb(0, 0, 0); fill-opacity: 0;"/></g></g></g><rect class="scrollbar" rx="20" ry="3" width="0" height="0" style="fill: rgb(128, 139, 164); fill-opacity: 1;" x="0" y="0"/></g><g class="g-gtitle"><text class="gtitle" x="35" y="50" text-anchor="start" dy="0em" style="font-family: 'Open Sans', verdana, arial, sans-serif; font-size: 17px; fill: rgb(42, 63, 95); opacity: 1; font-weight: normal; white-space: pre;">Figure 4b</text></g><g class="g-xtitle"/><g class="g-x2title"/><g class="g-x3title"/><g class="g-x4title"><text class="x4title" x="290" y="764.20625" text-anchor="middle" style="font-family: 'Open Sans', verdana, arial, sans-serif; font-size: 14px; fill: rgb(42, 63, 95); opacity: 1; font-weight: normal; white-space: pre;">Time</text></g><g class="g-ytitle"><text class="ytitle" transform="rotate(-90,43.16875,160.0625)" x="43.16875" y="160.0625" text-anchor="middle" style="font-family: 'Open Sans', verdana, arial, sans-serif; font-size: 14px; fill: rgb(42, 63, 95); opacity: 1; font-weight: normal; white-space: pre;">Biking Speed</text></g><g class="g-y2title"><text class="y2title" transform="rotate(-90,27.903125000000003,326.6875)" x="27.903125000000003" y="326.6875" text-anchor="middle" style="font-family: 'Open Sans', verdana, arial, sans-serif; font-size: 14px; fill: rgb(42, 63, 95); opacity: 1; font-weight: normal; white-space: pre;">Heart Rate (bpm)</text></g><g class="g-y3title"><text class="y3title" transform="rotate(-90,20.278125000000003,493.3125)" x="20.278125000000003" y="493.3125" text-anchor="middle" style="font-family: 'Open Sans', verdana, arial, sans-serif; font-size: 14px; fill: rgb(42, 63, 95); opacity: 1; font-weight: normal; white-space: pre;">Total Sweat Loss</text></g><g class="g-y4title"><text class="y4title" transform="rotate(-90,35.528125,659.9375)" x="35.528125" y="659.9375" text-anchor="middle" style="font-family: 'Open Sans', verdana, arial, sans-serif; font-size: 14px; fill: rgb(42, 63, 95); opacity: 1; font-weight: normal; white-space: pre;">Humidity</text></g></g></svg>