<svg class="main-svg" xmlns="http://www.w3.org/2000/svg" xmlns:xlink="http://www.w3.org/1999/xlink" width="600" height="800" style="" viewBox="0 0 600 800"><rect x="0" y="0" width="600" height="800" style="fill: rgb(255, 255, 255); fill-opacity: 1;"/><defs id="defs-507aba"><g class="clips"><clipPath id="clip507abaxyplot" class="plotclip"><rect width="329" height="120.12499999999999"/></clipPath><clipPath id="clip507abax2y2plot" class="plotclip"><rect width="329" height="120.12499999999999"/></clipPath><clipPath id="clip507abax3y3plot" class="plotclip"><rect width="329" height="120.12500000000001"/></clipPath><clipPath id="clip507abax4y4plot" class="plotclip"><rect width="329" height="120.125"/></clipPath><clipPath class="axesclip" id="clip507abax"><rect x="80" y="0" width="329" height="800"/></clipPath><clipPath class="axesclip" id="clip507abay"><rect x="0" y="100" width="600" height="120.12499999999999"/></clipPath><clipPath class="axesclip" id="clip507abaxy"><rect x="80" y="100" width="329" height="120.12499999999999"/></clipPath><clipPath class="axesclip" id="clip507abay2"><rect x="0" y="266.625" width="600" height="120.12499999999999"/></clipPath><clipPath class="axesclip" id="clip507abaxy2"><rect x="80" y="266.625" width="329" height="120.12499999999999"/></clipPath><clipPath class="axesclip" id="clip507abay3"><rect x="0" y="433.25" width="600" height="120.12500000000001"/></clipPath><clipPath class="axesclip" id="clip507abaxy3"><rect x="80" y="433.25" width="329" height="120.12500000000001"/></clipPath><clipPath class="axesclip" id="clip507abay4"><rect x="0" y="599.875" width="600" height="120.125"/></clipPath><clipPath class="axesclip" id="clip507abaxy4"><rect x="80" y="599.875" width="329" height="120.125"/></clipPath><clipPath class="axesclip" id="clip507abax2"><rect x="80" y="0" width="329" height="800"/></clipPath><clipPath class="axesclip" id="clip507abax2y"><rect x="80" y="100" width="329" height="120.12499999999999"/></clipPath><clipPath class="axesclip" id="clip507abax2y2"><rect x="80" y="266.625" width="329" height="120.12499999999999"/></clipPath><clipPath class="axesclip" id="clip507abax2y3"><rect x="80" y="433.25" width="329" height="120.12500000000001"/></clipPath><clipPath class="axesclip" id="clip507abax2y4"><rect x="80" y="599.875" width="329" height="120.125"/></clipPath><clipPath class="axesclip" id="clip507abax3"><rect x="80" y="0" width="329" height="800"/></clipPath><clipPath class="axesclip" id="clip507abax3y"><rect x="80" y="100" width="329" height="120.12499999999999"/></clipPath><clipPath class="axesclip" id="clip507abax3y2"><rect x="80" y="266.625" width="329" height="120.12499999999999"/></clipPath><clipPath class="axesclip" id="clip507abax3y3"><rect x="80" y="433.25" width="329" height="120.12500000000001"/></clipPath><clipPath class="axesclip" id="clip507abax3y4"><rect x="80" y="599.875" width="329" height="120.125"/></clipPath><clipPath class="axesclip" id="clip507abax4"><rect x="80" y="0" width="329" height="800"/></clipPath><clipPath class="axesclip" id="clip507abax4y"><rect x="80" y="100" width="329" height="120.12499999999999"/></clipPath><clipPath class="axesclip" id="clip507abax4y2"><rect x="80" y="266.625" width="329" height="120.12499999999999"/></clipPath><clipPath class="axesclip" id="clip507abax4y3"><rect x="80" y="433.25" width="329" height="120.12500000000001"/></clipPath><clipPath class="axesclip" id="clip507abax4y4"><rect x="80" y="599.875" width="329" height="120.125"/></clipPath></g><g class="gradients"/><g class="patterns"/></defs><g class="bglayer"><rect class="bg" x="80" y="100" width="329" height="120.12499999999999" style="fill: rgb(0, 0, 0); fill-opacity: 0; stroke-width: 0;"/><rect class="bg" x="80" y="266.625" width="329" height="120.12499999999999" style="fill: rgb(0, 0, 0); fill-opacity: 0; stroke-width: 0;"/><rect class="bg" x="80" y="433.25" width="329" height="120.12500000000001" style="fill: rgb(0, 0, 0); fill-opacity: 0; stroke-width: 0;"/><rect class="bg" x="80" y="599.875" width="329" height="120.125" style="fill: rgb(0, 0, 0); fill-opacity: 0; stroke-width: 0;"/></g><g class="layer-below"><g class="imagelayer"/><g class="shapelayer"/></g><g class="cartesianlayer"><g class="subplot xy"><g class="layer-subplot"><g class="shapelayer"/><g class="imagelayer"/></g><g class="gridlayer"><g class="x"/><g class="y"/></g><g class="zerolinelayer"/><path class="xlines-below"/><path class="ylines-below"/><g class="overlines-below"/><g class="xaxislayer-below"/><g class="yaxislayer-below"/><g class="overaxes-below"/><g class="plot" transform="translate(80,100)" clip-path="url(#clip507abaxyplot)"><g class="scatterlayer mlayer"><g class="trace scatter trace4d96e4" style="stroke-miterlimit: 2; opacity: 1;"><g class="fills"/><g class="errorbars"/><g class="lines"><path class="js-line" d="M1.07,92.18L4.75,76.51L6.59,98.45L8.42,103.15L10.26,76.51L12.1,76.51L13.94,89.05L17.61,100.02L19.45,101.58L24.97,114.12L26.8,110.99L28.64,104.72L30.48,103.15L32.32,106.28L34.16,103.15L35.99,98.45L37.83,100.02L39.67,96.88L41.51,104.72L43.35,104.72L45.18,98.45L47.02,100.02L48.86,107.85L52.54,104.72L54.37,101.58L56.21,104.72L58.05,110.99L59.89,109.42L61.73,112.55L67.24,92.18L69.08,84.35L70.92,85.92L72.75,81.21L74.59,67.11L76.43,60.85L78.27,48.31L80.11,51.44L81.94,56.15L83.78,49.88L85.62,62.41L87.46,56.15L89.3,49.88L91.13,53.01L96.65,35.78L98.49,63.98L102.16,78.08L105.84,34.21L107.68,32.64L109.51,46.74L111.35,54.58L113.19,32.64L116.87,26.38L118.7,20.11L120.54,24.81L122.38,16.97L124.22,9.14L126.06,12.27L127.89,12.27L129.73,7.57L131.57,13.84L133.41,15.41L137.08,23.24L138.92,15.41L140.76,7.57L142.6,16.97L144.44,7.57L146.27,6.01L149.95,34.21L151.79,65.55L153.63,67.11L155.46,63.98L157.3,67.11L159.14,65.55L160.98,79.65L162.82,81.21L164.65,84.35L166.49,84.35L170.17,93.75L172.01,92.18L173.84,90.62L175.68,82.78L177.52,89.05L179.36,90.62L181.2,95.32L183.03,92.18L184.87,89.05L186.71,90.62L188.55,92.18L190.39,95.32L192.22,95.32L194.06,90.62L195.9,85.92L197.74,98.45L199.57,90.62L201.41,90.62L203.25,87.48L205.09,98.45L206.93,95.32L208.76,90.62L210.6,85.92L212.44,92.18L216.12,104.72L217.95,92.18L219.79,85.92L221.63,89.05L223.47,85.92L225.31,90.62L227.14,84.35L228.98,92.18L230.82,100.02L232.66,92.18L236.33,98.45L238.17,93.75L240.01,89.05L241.85,98.45L243.69,96.88L245.52,98.45L247.36,98.45L249.2,100.02L251.04,98.45L252.88,90.62L254.71,100.02L256.55,101.58L258.39,93.75L260.23,95.32L262.07,92.18L263.9,103.15L265.74,101.58L267.58,93.75L269.42,95.32L271.26,101.58L273.09,106.28L274.93,101.58L276.77,98.45L278.61,92.18L280.45,100.02L282.28,95.32L284.12,103.15L285.96,100.02L287.8,95.32L289.64,95.32L291.47,96.88L293.31,101.58L295.15,98.45L296.99,101.58L298.83,103.15L300.66,101.58L302.5,106.28L304.34,101.58L308.02,101.58L309.85,92.18L311.69,98.45L313.53,95.32L315.37,90.62L317.21,95.32L319.04,103.15L320.88,106.28L322.72,101.58L324.56,106.28L326.4,103.15L328.23,98.45" style="vector-effect: non-scaling-stroke; fill: none; stroke: rgb(255, 0, 0); stroke-opacity: 1; stroke-width: 2px; opacity: 1;"/></g><g class="points"/><g class="text"/></g></g></g><g class="overplot"/><path class="xlines-above crisp" d="M78,221.125H411M78,99H411" style="fill: none; stroke-width: 2px; stroke: rgb(0, 0, 0); stroke-opacity: 1;"/><path class="ylines-above crisp" d="M79,100V220.125M410,100V220.125" style="fill: none; stroke-width: 2px; stroke: rgb(0, 0, 0); stroke-opacity: 1;"/><g class="overlines-above"/><g class="xaxislayer-above"><path class="xtick ticks crisp" d="M0,220.125v-5" transform="translate(171.9,0)" style="stroke: rgb(68, 68, 68); stroke-opacity: 1; stroke-width: 1px;"/><path class="xtick ticks crisp" d="M0,220.125v-5" transform="translate(263.8,0)" style="stroke: rgb(68, 68, 68); stroke-opacity: 1; stroke-width: 1px;"/><path class="xtick ticks crisp" d="M0,220.125v-5" transform="translate(355.7,0)" style="stroke: rgb(68, 68, 68); stroke-opacity: 1; stroke-width: 1px;"/></g><g class="yaxislayer-above"><g class="ytick"><text text-anchor="end" x="75.6" y="4.199999999999999" transform="translate(0,215.69)" style="font-family: 'Open Sans', verdana, arial, sans-serif; font-size: 12px; fill: rgb(42, 63, 95); fill-opacity: 1; white-space: pre; opacity: 1;">60</text></g><g class="ytick"><text text-anchor="end" x="75.6" y="4.199999999999999" style="font-family: 'Open Sans', verdana, arial, sans-serif; font-size: 12px; fill: rgb(42, 63, 95); fill-opacity: 1; white-space: pre; opacity: 1;" transform="translate(0,184.35)">80</text></g><g class="ytick"><text text-anchor="end" x="75.6" y="4.199999999999999" style="font-family: 'Open Sans', verdana, arial, sans-serif; font-size: 12px; fill: rgb(42, 63, 95); fill-opacity: 1; white-space: pre; opacity: 1;" transform="translate(0,153.01)">100</text></g><g class="ytick"><text text-anchor="end" x="75.6" y="4.199999999999999" style="font-family: 'Open Sans', verdana, arial, sans-serif; font-size: 12px; fill: rgb(42, 63, 95); fill-opacity: 1; white-space: pre; opacity: 1;" transform="translate(0,121.67)">120</text></g></g><g class="overaxes-above"/></g><g class="subplot x2y2"><g class="layer-subplot"><g class="shapelayer"/><g class="imagelayer"/></g><g class="gridlayer"><g class="x2"/><g class="y2"/></g><g class="zerolinelayer"><path class="y2zl zl crisp" transform="translate(0,380.745)" d="M80,0h329" style="stroke: rgb(255, 255, 255); stroke-opacity: 1; stroke-width: 2px;"/></g><path class="xlines-below"/><path class="ylines-below"/><g class="overlines-below"/><g class="xaxislayer-below"/><g class="yaxislayer-below"/><g class="overaxes-below"/><g class="plot" transform="translate(80,266.625)" clip-path="url(#clip507abax2y2plot)"><g class="scatterlayer mlayer"><g class="trace scatter trace53a29b" style="stroke-miterlimit: 2; opacity: 1;"><g class="fills"/><g class="errorbars"/><g class="lines"><path class="js-line" d="M0,114.12L129.73,114.12L133.68,6.01L137.42,16.13L142.14,75.31L148.3,94.29L155.03,100.53L163.86,110.66L175.1,114.12L329,114.12" style="vector-effect: non-scaling-stroke; fill: none; stroke: rgb(0, 0, 255); stroke-opacity: 1; stroke-width: 2px; opacity: 1;"/></g><g class="points"/><g class="text"/></g></g></g><g class="overplot"/><path class="xlines-above crisp" d="M78,387.75H411M78,265.625H411" style="fill: none; stroke-width: 2px; stroke: rgb(0, 0, 0); stroke-opacity: 1;"/><path class="ylines-above crisp" d="M79,266.625V386.75M410,266.625V386.75" style="fill: none; stroke-width: 2px; stroke: rgb(0, 0, 0); stroke-opacity: 1;"/><g class="overlines-above"/><g class="xaxislayer-above"><path class="x2tick ticks crisp" d="M0,386.75v-5" transform="translate(171.9,0)" style="stroke: rgb(68, 68, 68); stroke-opacity: 1; stroke-width: 1px;"/><path class="x2tick ticks crisp" d="M0,386.75v-5" transform="translate(263.8,0)" style="stroke: rgb(68, 68, 68); stroke-opacity: 1; stroke-width: 1px;"/><path class="x2tick ticks crisp" d="M0,386.75v-5" transform="translate(355.7,0)" style="stroke: rgb(68, 68, 68); stroke-opacity: 1; stroke-width: 1px;"/></g><g class="yaxislayer-above"><g class="y2tick"><text text-anchor="end" x="75.6" y="4.199999999999999" transform="translate(0,380.745)" style="font-family: 'Open Sans', verdana, arial, sans-serif; font-size: 12px; fill: rgb(42, 63, 95); fill-opacity: 1; white-space: pre; opacity: 1;">0</text></g><g class="y2tick"><text text-anchor="end" x="75.6" y="4.199999999999999" style="font-family: 'Open Sans', verdana, arial, sans-serif; font-size: 12px; fill: rgb(42, 63, 95); fill-opacity: 1; white-space: pre; opacity: 1;" transform="translate(0,354.085)">0.1</text></g><g class="y2tick"><text text-anchor="end" x="75.6" y="4.199999999999999" style="font-family: 'Open Sans', verdana, arial, sans-serif; font-size: 12px; fill: rgb(42, 63, 95); fill-opacity: 1; white-space: pre; opacity: 1;" transform="translate(0,327.425)">0.2</text></g><g class="y2tick"><text text-anchor="end" x="75.6" y="4.199999999999999" style="font-family: 'Open Sans', verdana, arial, sans-serif; font-size: 12px; fill: rgb(42, 63, 95); fill-opacity: 1; white-space: pre; opacity: 1;" transform="translate(0,300.765)">0.3</text></g><g class="y2tick"><text text-anchor="end" x="75.6" y="4.199999999999999" style="font-family: 'Open Sans', verdana, arial, sans-serif; font-size: 12px; fill: rgb(42, 63, 95); fill-opacity: 1; white-space: pre; opacity: 1;" transform="translate(0,274.115)">0.4</text></g></g><g class="overaxes-above"/></g><g class="subplot x3y3"><g class="layer-subplot"><g class="shapelayer"/><g class="imagelayer"/></g><g class="gridlayer"><g class="x3"/><g class="y3"/></g><g class="zerolinelayer"><path class="y3zl zl crisp" transform="translate(0,547.37)" d="M80,0h329" style="stroke: rgb(255, 255, 255); stroke-opacity: 1; stroke-width: 2px;"/></g><path class="xlines-below"/><path class="ylines-below"/><g class="overlines-below"/><g class="xaxislayer-below"/><g class="yaxislayer-below"/><g class="overaxes-below"/><g class="plot" transform="translate(80,433.25)" clip-path="url(#clip507abax3y3plot)"><g class="scatterlayer mlayer"><g class="trace scatter tracea3fb96" style="stroke-miterlimit: 2; opacity: 1;"><g class="fills"/><g class="errorbars"/><g class="lines"><path class="js-line" d="M0,114.12L129.73,114.12L133.68,76.28L137.42,43.85L142.14,27.63L148.3,16.82L155.03,8.71L163.86,6.01L175.1,30.33L187.51,49.25L202.7,87.09L211.12,100.6L224.72,114.12L329,114.12" style="vector-effect: non-scaling-stroke; fill: none; stroke: rgb(0, 0, 255); stroke-opacity: 1; stroke-width: 2px; opacity: 1;"/></g><g class="points"/><g class="text"/></g></g></g><g class="overplot"/><path class="xlines-above crisp" d="M78,554.375H411M78,432.25H411" style="fill: none; stroke-width: 2px; stroke: rgb(0, 0, 0); stroke-opacity: 1;"/><path class="ylines-above crisp" d="M79,433.25V553.375M410,433.25V553.375" style="fill: none; stroke-width: 2px; stroke: rgb(0, 0, 0); stroke-opacity: 1;"/><g class="overlines-above"/><g class="xaxislayer-above"><path class="x3tick ticks crisp" d="M0,553.375v-5" transform="translate(171.9,0)" style="stroke: rgb(68, 68, 68); stroke-opacity: 1; stroke-width: 1px;"/><path class="x3tick ticks crisp" d="M0,553.375v-5" transform="translate(263.8,0)" style="stroke: rgb(68, 68, 68); stroke-opacity: 1; stroke-width: 1px;"/><path class="x3tick ticks crisp" d="M0,553.375v-5" transform="translate(355.7,0)" style="stroke: rgb(68, 68, 68); stroke-opacity: 1; stroke-width: 1px;"/></g><g class="yaxislayer-above"><g class="y3tick"><text text-anchor="end" x="75.6" y="4.199999999999999" transform="translate(0,547.37)" style="font-family: 'Open Sans', verdana, arial, sans-serif; font-size: 12px; fill: rgb(42, 63, 95); fill-opacity: 1; white-space: pre; opacity: 1;">0</text></g><g class="y3tick"><text text-anchor="end" x="75.6" y="4.199999999999999" style="font-family: 'Open Sans', verdana, arial, sans-serif; font-size: 12px; fill: rgb(42, 63, 95); fill-opacity: 1; white-space: pre; opacity: 1;" transform="translate(0,503.97)">1</text></g><g class="y3tick"><text text-anchor="end" x="75.6" y="4.199999999999999" style="font-family: 'Open Sans', verdana, arial, sans-serif; font-size: 12px; fill: rgb(42, 63, 95); fill-opacity: 1; white-space: pre; opacity: 1;" transform="translate(0,460.57)">2</text></g></g><g class="overaxes-above"/></g><g class="subplot x4y4"><g class="layer-subplot"><g class="shapelayer"/><g class="imagelayer"/></g><g class="gridlayer"><g class="x4"/><g class="y4"/></g><g class="zerolinelayer"/><path class="xlines-below"/><path class="ylines-below"/><g class="overlines-below"/><g class="xaxislayer-below"/><g class="yaxislayer-below"/><g class="overaxes-below"/><g class="plot" transform="translate(80,599.875)" clip-path="url(#clip507abax4y4plot)"><g class="scatterlayer mlayer"><g class="trace scatter tracebc8511" style="stroke-miterlimit: 2; opacity: 1;"><g class="fills"/><g class="errorbars"/><g class="lines"><path class="js-line" d="M0.03,102.37L3.71,104.32L7.38,104L11.06,107.27L14.73,102.48L18.41,101.26L22.09,101.26L36.79,103.84L40.47,103.11L44.14,102.69L47.82,104.37L55.17,103.69L58.85,103.95L73.55,104.16L77.23,103.74L84.58,102.95L88.28,103.32L95.64,103.21L99.31,103L106.66,102.79L110.34,99.16L121.37,91.46L125.04,88.09L128.72,83.56L132.4,76.5L136.07,52.79L139.75,39.99L143.42,26.92L147.1,17.02L150.78,6.01L154.45,11.91L158.13,36.14L161.8,50.05L165.48,58.01L169.16,60.43L172.83,64.86L176.51,71.07L180.18,75.03L183.86,76.29L194.89,86.83L198.56,91.62L202.24,92.73L205.92,96.89L209.59,97.31L213.27,100.16L224.36,105.11L228.03,105.9L246.41,109.11L250.12,109.01L257.44,111.01L261.12,112.33L272.14,112.91L275.85,113.59L279.5,113.38L283.17,114.12L290.52,113.12L294.2,112.12L301.58,111.59L305.2,110.59L308.87,111.64L312.55,111.17L316.23,111.06L319.9,111.75L323.55,111.7" style="vector-effect: non-scaling-stroke; fill: none; stroke: rgb(0, 255, 0); stroke-opacity: 1; stroke-width: 2px; opacity: 1;"/></g><g class="points"/><g class="text"/></g></g></g><g class="overplot"/><path class="xlines-above crisp" d="M78,721H411M78,598.875H411" style="fill: none; stroke-width: 2px; stroke: rgb(0, 0, 0); stroke-opacity: 1;"/><path class="ylines-above crisp" d="M79,599.875V720M410,599.875V720" style="fill: none; stroke-width: 2px; stroke: rgb(0, 0, 0); stroke-opacity: 1;"/><g class="overlines-above"/><g class="xaxislayer-above"><path class="x4tick ticks crisp" d="M0,720v-5" transform="translate(171.9,0)" style="stroke: rgb(68, 68, 68); stroke-opacity: 1; stroke-width: 1px;"/><path class="x4tick ticks crisp" d="M0,720v-5" transform="translate(263.8,0)" style="stroke: rgb(68, 68, 68); stroke-opacity: 1; stroke-width: 1px;"/><path class="x4tick ticks crisp" d="M0,720v-5" transform="translate(355.7,0)" style="stroke: rgb(68, 68, 68); stroke-opacity: 1; stroke-width: 1px;"/><g class="x4tick"><text text-anchor="middle" x="0" y="736.4" transform="translate(80,0)" style="font-family: 'Open Sans', verdana, arial, sans-serif; font-size: 12px; fill: rgb(42, 63, 95); fill-opacity: 1; white-space: pre; opacity: 1;">0</text></g><g class="x4tick"><text text-anchor="middle" x="0" y="736.4" style="font-family: 'Open Sans', verdana, arial, sans-serif; font-size: 12px; fill: rgb(42, 63, 95); fill-opacity: 1; white-space: pre; opacity: 1;" transform="translate(171.9,0)">50</text></g><g class="x4tick"><text text-anchor="middle" x="0" y="736.4" style="font-family: 'Open Sans', verdana, arial, sans-serif; font-size: 12px; fill: rgb(42, 63, 95); fill-opacity: 1; white-space: pre; opacity: 1;" transform="translate(263.8,0)">100</text></g><g class="x4tick"><text text-anchor="middle" x="0" y="736.4" style="font-family: 'Open Sans', verdana, arial, sans-serif; font-size: 12px; fill: rgb(42, 63, 95); fill-opacity: 1; white-space: pre; opacity: 1;" transform="translate(355.7,0)">150</text></g></g><g class="yaxislayer-above"><g class="y4tick"><text text-anchor="end" x="75.6" y="4.199999999999999" transform="translate(0,699.765)" style="font-family: 'Open Sans', verdana, arial, sans-serif; font-size: 12px; fill: rgb(42, 63, 95); fill-opacity: 1; white-space: pre; opacity: 1;">50</text></g><g class="y4tick"><text text-anchor="end" x="75.6" y="4.199999999999999" style="font-family: 'Open Sans', verdana, arial, sans-serif; font-size: 12px; fill: rgb(42, 63, 95); fill-opacity: 1; white-space: pre; opacity: 1;" transform="translate(0,673.425)">55</text></g><g class="y4tick"><text text-anchor="end" x="75.6" y="4.199999999999999" style="font-family: 'Open Sans', verdana, arial, sans-serif; font-size: 12px; fill: rgb(42, 63, 95); fill-opacity: 1; white-space: pre; opacity: 1;" transform="translate(0,647.085)">60</text></g><g class="y4tick"><text text-anchor="end" x="75.6" y="4.199999999999999" style="font-family: 'Open Sans', verdana, arial, sans-serif; font-size: 12px; fill: rgb(42, 63, 95); fill-opacity: 1; white-space: pre; opacity: 1;" transform="translate(0,620.735)">65</text></g></g><g class="overaxes-above"/></g></g><g class="polarlayer"/><g class="ternarylayer"/><g class="geolayer"/><g class="funnelarealayer"/><g class="pielayer"/><g class="iciclelayer"/><g class="treemaplayer"/><g class="sunburstlayer"/><g class="glimages"/><defs id="topdefs-507aba"><g class="clips"/><clipPath id="legend507aba"><rect width="172" height="105" x="0" y="0"/></clipPath></defs><g class="layer-above"><g class="imagelayer"/><g class="shapelayer"/></g><g class="infolayer"><g class="legend" pointer-events="all" transform="translate(415.58,100)"><rect class="bg" shape-rendering="crispEdges" style="stroke: rgb(68, 68, 68); stroke-opacity: 1; fill: rgb(255, 255, 255); fill-opacity: 1; stroke-width: 0px;" width="172" height="105" x="0" y="0"/><g class="scrollbox" transform="" clip-path="url(#legend507aba)"><text class="legendtitletext" text-anchor="start" x="2" y="18.2" style="font-family: 'Open Sans', verdana, arial, sans-serif; font-size: 14px; fill: rgb(42, 63, 95); fill-opacity: 1; white-space: pre;">Legend</text><g class="groups"><g class="traces" transform="translate(0,32.7)" style="opacity: 1;"><text class="legendtext" text-anchor="start" x="40" y="4.680000000000001" style="font-family: 'Open Sans', verdana, arial, sans-serif; font-size: 12px; fill: rgb(42, 63, 95); fill-opacity: 1; white-space: pre;">HR</text><g class="layers" style="opacity: 1;"><g class="legendfill"/><g class="legendlines"><path class="js-line" d="M5,0h30" style="fill: none; stroke: rgb(255, 0, 0); stroke-opacity: 1; stroke-width: 2px;"/></g><g class="legendsymbols"><g class="legendpoints"/></g></g><rect class="legendtoggle" x="0" y="-9.5" width="166.15625" height="19" style="fill: rgb(0, 0, 0); fill-opacity: 0;"/></g><g class="traces" transform="translate(0,51.7)" style="opacity: 1;"><text class="legendtext" text-anchor="start" x="40" y="4.680000000000001" style="font-family: 'Open Sans', verdana, arial, sans-serif; font-size: 12px; fill: rgb(42, 63, 95); fill-opacity: 1; white-space: pre;">Sweat Rate (nL/min)</text><g class="layers" style="opacity: 1;"><g class="legendfill"/><g class="legendlines"><path class="js-line" d="M5,0h30" style="fill: none; stroke: rgb(0, 0, 255); stroke-opacity: 1; stroke-width: 2px;"/></g><g class="legendsymbols"><g class="legendpoints"/></g></g><rect class="legendtoggle" x="0" y="-9.5" width="166.15625" height="19" style="fill: rgb(0, 0, 0); fill-opacity: 0;"/></g><g class="traces" transform="translate(0,70.7)" style="opacity: 1;"><text class="legendtext" text-anchor="start" x="40" y="4.680000000000001" style="font-family: 'Open Sans', verdana, arial, sans-serif; font-size: 12px; fill: rgb(42, 63, 95); fill-opacity: 1; white-space: pre;">Sweat Volume</text><g class="layers" style="opacity: 1;"><g class="legendfill"/><g class="legendlines"><path class="js-line" d="M5,0h30" style="fill: none; stroke: rgb(0, 0, 255); stroke-opacity: 1; stroke-width: 2px;"/></g><g class="legendsymbols"><g class="legendpoints"/></g></g><rect class="legendtoggle" x="0" y="-9.5" width="166.15625" height="19" style="fill: rgb(0, 0, 0); fill-opacity: 0;"/></g><g class="traces" transform="translate(0,89.7)" style="opacity: 1;"><text class="legendtext" text-anchor="start" x="40" y="4.680000000000001" style="font-family: 'Open Sans', verdana, arial, sans-serif; font-size: 12px; fill: rgb(42, 63, 95); fill-opacity: 1; white-space: pre;">Room Humidity (%)</text><g class="layers" style="opacity: 1;"><g class="legendfill"/><g class="legendlines"><path class="js-line" d="M5,0h30" style="fill: none; stroke: rgb(0, 255, 0); stroke-opacity: 1; stroke-width: 2px;"/></g><g class="legendsymbols"><g class="legendpoints"/></g></g><rect class="legendtoggle" x="0" y="-9.5" width="166.15625" height="19" style="fill: rgb(0, 0, 0); fill-opacity: 0;"/></g></g></g><rect class="scrollbar" rx="20" ry="3" width="0" height="0" style="fill: rgb(128, 139, 164); fill-opacity: 1;" x="0" y="0"/></g><g class="g-gtitle"><text class="gtitle" x="30" y="50" text-anchor="start" dy="0em" style="font-family: 'Open Sans', verdana, arial, sans-serif; font-size: 17px; fill: rgb(42, 63, 95); opacity: 1; font-weight: normal; white-space: pre;">Figure 5a</text></g><g class="g-xtitle"/><g class="g-x2title"/><g class="g-x3title"/><g class="g-x4title"/><g class="g-ytitle"><text class="ytitle" transform="rotate(-90,27.903125000000003,160.0625)" x="27.903125000000003" y="160.0625" text-anchor="middle" style="font-family: 'Open Sans', verdana, arial, sans-serif; font-size: 14px; fill: rgb(42, 63, 95); opacity: 1; font-weight: normal; white-space: pre;">Heart Rate (bpm)</text></g><g class="g-y2title"><text class="y2title" transform="rotate(-90,31.168750000000003,326.6875)" x="31.168750000000003" y="326.6875" text-anchor="middle" style="font-family: 'Open Sans', verdana, arial, sans-serif; font-size: 14px; fill: rgb(42, 63, 95); opacity: 1; font-weight: normal; white-space: pre;">Sweat Rate (uL/min)</text></g><g class="g-y3title"><text class="y3title" transform="rotate(-90,43.16875,493.3125)" x="43.16875" y="493.3125" text-anchor="middle" style="font-family: 'Open Sans', verdana, arial, sans-serif; font-size: 14px; fill: rgb(42, 63, 95); opacity: 1; font-weight: normal; white-space: pre;">Sweat Loss (uL)</text></g><g class="g-y4title"><text class="y4title" transform="rotate(-90,35.528125,659.9375)" x="35.528125" y="659.9375" text-anchor="middle" style="font-family: 'Open Sans', verdana, arial, sans-serif; font-size: 14px; fill: rgb(42, 63, 95); opacity: 1; font-weight: normal; white-space: pre;">Humidity (%)</text></g></g></svg>