<svg class="main-svg" xmlns="http://www.w3.org/2000/svg" xmlns:xlink="http://www.w3.org/1999/xlink" width="600" height="800" style="" viewBox="0 0 600 800"><rect x="0" y="0" width="600" height="800" style="fill: rgb(255, 255, 255); fill-opacity: 1;"/><defs id="defs-dafca8"><g class="clips"><clipPath id="clipdafca8xyplot" class="plotclip"><rect width="329" height="120.12499999999999"/></clipPath><clipPath id="clipdafca8x2y2plot" class="plotclip"><rect width="329" height="120.12499999999999"/></clipPath><clipPath id="clipdafca8x3y3plot" class="plotclip"><rect width="329" height="120.12500000000001"/></clipPath><clipPath id="clipdafca8x4y4plot" class="plotclip"><rect width="329" height="120.125"/></clipPath><clipPath class="axesclip" id="clipdafca8x"><rect x="80" y="0" width="329" height="800"/></clipPath><clipPath class="axesclip" id="clipdafca8y"><rect x="0" y="100" width="600" height="120.12499999999999"/></clipPath><clipPath class="axesclip" id="clipdafca8xy"><rect x="80" y="100" width="329" height="120.12499999999999"/></clipPath><clipPath class="axesclip" id="clipdafca8y2"><rect x="0" y="266.625" width="600" height="120.12499999999999"/></clipPath><clipPath class="axesclip" id="clipdafca8xy2"><rect x="80" y="266.625" width="329" height="120.12499999999999"/></clipPath><clipPath class="axesclip" id="clipdafca8y3"><rect x="0" y="433.25" width="600" height="120.12500000000001"/></clipPath><clipPath class="axesclip" id="clipdafca8xy3"><rect x="80" y="433.25" width="329" height="120.12500000000001"/></clipPath><clipPath class="axesclip" id="clipdafca8y4"><rect x="0" y="599.875" width="600" height="120.125"/></clipPath><clipPath class="axesclip" id="clipdafca8xy4"><rect x="80" y="599.875" width="329" height="120.125"/></clipPath><clipPath class="axesclip" id="clipdafca8x2"><rect x="80" y="0" width="329" height="800"/></clipPath><clipPath class="axesclip" id="clipdafca8x2y"><rect x="80" y="100" width="329" height="120.12499999999999"/></clipPath><clipPath class="axesclip" id="clipdafca8x2y2"><rect x="80" y="266.625" width="329" height="120.12499999999999"/></clipPath><clipPath class="axesclip" id="clipdafca8x2y3"><rect x="80" y="433.25" width="329" height="120.12500000000001"/></clipPath><clipPath class="axesclip" id="clipdafca8x2y4"><rect x="80" y="599.875" width="329" height="120.125"/></clipPath><clipPath class="axesclip" id="clipdafca8x3"><rect x="80" y="0" width="329" height="800"/></clipPath><clipPath class="axesclip" id="clipdafca8x3y"><rect x="80" y="100" width="329" height="120.12499999999999"/></clipPath><clipPath class="axesclip" id="clipdafca8x3y2"><rect x="80" y="266.625" width="329" height="120.12499999999999"/></clipPath><clipPath class="axesclip" id="clipdafca8x3y3"><rect x="80" y="433.25" width="329" height="120.12500000000001"/></clipPath><clipPath class="axesclip" id="clipdafca8x3y4"><rect x="80" y="599.875" width="329" height="120.125"/></clipPath><clipPath class="axesclip" id="clipdafca8x4"><rect x="80" y="0" width="329" height="800"/></clipPath><clipPath class="axesclip" id="clipdafca8x4y"><rect x="80" y="100" width="329" height="120.12499999999999"/></clipPath><clipPath class="axesclip" id="clipdafca8x4y2"><rect x="80" y="266.625" width="329" height="120.12499999999999"/></clipPath><clipPath class="axesclip" id="clipdafca8x4y3"><rect x="80" y="433.25" width="329" height="120.12500000000001"/></clipPath><clipPath class="axesclip" id="clipdafca8x4y4"><rect x="80" y="599.875" width="329" height="120.125"/></clipPath></g><g class="gradients"/><g class="patterns"/></defs><g class="bglayer"><rect class="bg" x="80" y="100" width="329" height="120.12499999999999" style="fill: rgb(0, 0, 0); fill-opacity: 0; stroke-width: 0;"/><rect class="bg" x="80" y="266.625" width="329" height="120.12499999999999" style="fill: rgb(0, 0, 0); fill-opacity: 0; stroke-width: 0;"/><rect class="bg" x="80" y="433.25" width="329" height="120.12500000000001" style="fill: rgb(0, 0, 0); fill-opacity: 0; stroke-width: 0;"/><rect class="bg" x="80" y="599.875" width="329" height="120.125" style="fill: rgb(0, 0, 0); fill-opacity: 0; stroke-width: 0;"/></g><g class="layer-below"><g class="imagelayer"/><g class="shapelayer"/></g><g class="cartesianlayer"><g class="subplot xy"><g class="layer-subplot"><g class="shapelayer"/><g class="imagelayer"/></g><g class="gridlayer"><g class="x"/><g class="y"/></g><g class="zerolinelayer"/><path class="xlines-below"/><path class="ylines-below"/><g class="overlines-below"/><g class="xaxislayer-below"/><g class="yaxislayer-below"/><g class="overaxes-below"/><g class="plot" transform="translate(80,100)" clip-path="url(#clipdafca8xyplot)"><g class="scatterlayer mlayer"><g class="trace scatter tracefacb66" style="stroke-miterlimit: 2; opacity: 1;"><g class="fills"/><g class="errorbars"/><g class="lines"><path class="js-line" d="M1.38,101.34L2.87,101.34L4.35,104.29L7.31,102.32L8.79,107.24L10.28,109.2L11.76,108.22L16.2,95.44L17.68,88.56L19.17,100.36L20.65,100.36L22.13,100.36L23.61,103.31L25.09,102.32L26.58,98.39L29.54,41.39L31.02,37.46L32.5,36.47L33.99,27.63L35.47,26.65L36.95,24.68L38.43,29.59L39.91,15.83L41.4,9.94L42.88,11.9L44.36,11.9L45.84,7.97L48.81,6.01L50.29,8.95L51.77,6.01L53.25,6.99L54.73,6.01L56.22,6.99L59.18,33.53L60.66,37.46L66.59,62.03L68.07,76.77L69.55,74.81L71.04,80.7L74,74.81L75.48,77.75L76.96,81.69L78.45,79.72L79.93,85.62L81.41,85.62L82.89,82.67L84.37,86.6L85.86,91.51L87.34,86.6L90.3,86.6L91.78,85.62L93.27,86.6L94.75,84.63L96.23,88.56L97.71,85.62L99.19,87.58L100.68,86.6L102.16,85.62L103.64,88.56L105.12,88.56L106.6,92.5L108.09,89.55L109.57,90.53L111.05,92.5L112.53,86.6L114.01,87.58L115.5,89.55L116.98,91.51L118.46,90.53L119.94,93.48L121.42,92.5L122.91,93.48L124.39,92.5L125.87,99.38L127.35,100.36L130.32,94.46L131.8,96.43L133.28,96.43L134.76,94.46L136.24,87.58L137.73,86.6L139.21,92.5L140.69,94.46L142.17,93.48L143.65,90.53L145.14,82.67L146.62,84.63L148.1,96.43L149.58,97.41L152.55,82.67L154.03,81.69L155.51,81.69L156.99,75.79L158.47,61.05L159.96,65.96L164.4,85.62L165.88,86.6L167.37,91.51L168.85,93.48L170.33,93.48L171.81,100.36L173.29,99.38L174.78,101.34L176.26,100.36L177.74,98.39L180.7,96.43L182.18,88.56L183.67,85.62L185.15,89.55L188.11,70.87L189.59,83.65L191.08,84.63L192.56,91.51L195.52,83.65L197,90.53L198.49,87.58L199.97,94.46L201.45,87.58L202.93,96.43L204.41,96.43L205.9,98.39L207.38,97.41L208.86,99.38L211.82,99.38L213.31,95.44L214.79,95.44L216.27,91.51L217.75,97.41L219.23,96.43L220.72,97.41L222.2,100.36L223.68,103.31L225.16,97.41L226.64,97.41L228.13,103.31L229.61,101.34L231.09,103.31L232.57,102.32L234.05,105.27L235.54,100.36L237.02,98.39L238.5,98.39L239.98,100.36L241.46,101.34L242.95,105.27L244.43,99.38L245.91,106.26L247.39,114.12L248.87,110.19L250.36,103.31L251.84,104.29L253.32,102.32L254.8,103.31L256.28,102.32L257.77,103.31L259.25,102.32L260.73,102.32L265.18,109.2L266.66,105.27L268.14,106.26L269.62,108.22L271.1,106.26L272.59,108.22L274.07,106.26L275.55,107.24L277.03,108.22L278.51,114.12L281.48,102.32L282.96,103.31L284.44,102.32L285.92,105.27L288.89,100.36L290.37,102.32L291.85,103.31L293.33,105.27L294.82,108.22L296.3,108.22L300.74,97.41L302.23,87.58L303.71,91.51L305.19,92.5L306.67,93.48L308.15,90.53L309.64,87.58L311.12,87.58L312.6,88.56L314.08,93.48L317.05,78.74L318.53,81.69L320.01,78.74L321.49,92.5L322.97,105.27L324.46,106.26L325.94,107.24L327.42,106.26L328.9,107.24" style="vector-effect: non-scaling-stroke; fill: none; stroke: rgb(255, 0, 0); stroke-opacity: 1; stroke-width: 2px; opacity: 1;"/></g><g class="points"/><g class="text"/></g></g></g><g class="overplot"/><path class="xlines-above crisp" d="M78,221.125H411M78,99H411" style="fill: none; stroke-width: 2px; stroke: rgb(0, 0, 0); stroke-opacity: 1;"/><path class="ylines-above crisp" d="M79,100V220.125M410,100V220.125" style="fill: none; stroke-width: 2px; stroke: rgb(0, 0, 0); stroke-opacity: 1;"/><g class="overlines-above"/><g class="xaxislayer-above"><path class="xtick ticks crisp" d="M0,220.125v-5" transform="translate(154.1,0)" style="stroke: rgb(68, 68, 68); stroke-opacity: 1; stroke-width: 1px;"/><path class="xtick ticks crisp" d="M0,220.125v-5" transform="translate(228.2,0)" style="stroke: rgb(68, 68, 68); stroke-opacity: 1; stroke-width: 1px;"/><path class="xtick ticks crisp" d="M0,220.125v-5" transform="translate(302.3,0)" style="stroke: rgb(68, 68, 68); stroke-opacity: 1; stroke-width: 1px;"/><path class="xtick ticks crisp" d="M0,220.125v-5" transform="translate(376.4,0)" style="stroke: rgb(68, 68, 68); stroke-opacity: 1; stroke-width: 1px;"/></g><g class="yaxislayer-above"><g class="ytick"><text text-anchor="end" x="75.6" y="4.199999999999999" transform="translate(0,180.7)" style="font-family: 'Open Sans', verdana, arial, sans-serif; font-size: 12px; fill: rgb(42, 63, 95); fill-opacity: 1; white-space: pre; opacity: 1;">100</text></g><g class="ytick"><text text-anchor="end" x="75.6" y="4.199999999999999" style="font-family: 'Open Sans', verdana, arial, sans-serif; font-size: 12px; fill: rgb(42, 63, 95); fill-opacity: 1; white-space: pre; opacity: 1;" transform="translate(0,131.56)">150</text></g></g><g class="overaxes-above"/></g><g class="subplot x2y2"><g class="layer-subplot"><g class="shapelayer"/><g class="imagelayer"/></g><g class="gridlayer"><g class="x2"/><g class="y2"/></g><g class="zerolinelayer"><path class="y2zl zl crisp" transform="translate(0,380.745)" d="M80,0h329" style="stroke: rgb(255, 255, 255); stroke-opacity: 1; stroke-width: 2px;"/></g><path class="xlines-below"/><path class="ylines-below"/><g class="overlines-below"/><g class="xaxislayer-below"/><g class="yaxislayer-below"/><g class="overaxes-below"/><g class="plot" transform="translate(80,266.625)" clip-path="url(#clipdafca8x2y2plot)"><g class="scatterlayer mlayer"><g class="trace scatter trace100931" style="stroke-miterlimit: 2; opacity: 1;"><g class="fills"/><g class="errorbars"/><g class="lines"><path class="js-line" d="M0,114.12L47.42,114.12L48.73,73.03L50.73,60.35L52.39,32.86L55.8,16.02L58.44,15.75L59.6,6.01L60.96,21.73L68.17,32.08L68.89,64.06L75.88,108.7L80.55,110.28L87.51,114.12L93.32,114.12L329,114.12" style="vector-effect: non-scaling-stroke; fill: none; stroke: rgb(0, 0, 255); stroke-opacity: 1; stroke-width: 2px; opacity: 1;"/></g><g class="points"/><g class="text"/></g></g></g><g class="overplot"/><path class="xlines-above crisp" d="M78,387.75H411M78,265.625H411" style="fill: none; stroke-width: 2px; stroke: rgb(0, 0, 0); stroke-opacity: 1;"/><path class="ylines-above crisp" d="M79,266.625V386.75M410,266.625V386.75" style="fill: none; stroke-width: 2px; stroke: rgb(0, 0, 0); stroke-opacity: 1;"/><g class="overlines-above"/><g class="xaxislayer-above"><path class="x2tick ticks crisp" d="M0,386.75v-5" transform="translate(154.1,0)" style="stroke: rgb(68, 68, 68); stroke-opacity: 1; stroke-width: 1px;"/><path class="x2tick ticks crisp" d="M0,386.75v-5" transform="translate(228.2,0)" style="stroke: rgb(68, 68, 68); stroke-opacity: 1; stroke-width: 1px;"/><path class="x2tick ticks crisp" d="M0,386.75v-5" transform="translate(302.3,0)" style="stroke: rgb(68, 68, 68); stroke-opacity: 1; stroke-width: 1px;"/><path class="x2tick ticks crisp" d="M0,386.75v-5" transform="translate(376.4,0)" style="stroke: rgb(68, 68, 68); stroke-opacity: 1; stroke-width: 1px;"/></g><g class="yaxislayer-above"><g class="y2tick"><text text-anchor="end" x="75.6" y="4.199999999999999" transform="translate(0,380.745)" style="font-family: 'Open Sans', verdana, arial, sans-serif; font-size: 12px; fill: rgb(42, 63, 95); fill-opacity: 1; white-space: pre; opacity: 1;">0</text></g><g class="y2tick"><text text-anchor="end" x="75.6" y="4.199999999999999" style="font-family: 'Open Sans', verdana, arial, sans-serif; font-size: 12px; fill: rgb(42, 63, 95); fill-opacity: 1; white-space: pre; opacity: 1;" transform="translate(0,341.895)">0.2</text></g><g class="y2tick"><text text-anchor="end" x="75.6" y="4.199999999999999" style="font-family: 'Open Sans', verdana, arial, sans-serif; font-size: 12px; fill: rgb(42, 63, 95); fill-opacity: 1; white-space: pre; opacity: 1;" transform="translate(0,303.045)">0.4</text></g></g><g class="overaxes-above"/></g><g class="subplot x3y3"><g class="layer-subplot"><g class="shapelayer"/><g class="imagelayer"/></g><g class="gridlayer"><g class="x3"/><g class="y3"/></g><g class="zerolinelayer"><path class="y3zl zl crisp" transform="translate(0,547.37)" d="M80,0h329" style="stroke: rgb(255, 255, 255); stroke-opacity: 1; stroke-width: 2px;"/></g><path class="xlines-below"/><path class="ylines-below"/><g class="overlines-below"/><g class="xaxislayer-below"/><g class="yaxislayer-below"/><g class="overaxes-below"/><g class="plot" transform="translate(80,433.25)" clip-path="url(#clipdafca8x3y3plot)"><g class="scatterlayer mlayer"><g class="trace scatter trace1b6393" style="stroke-miterlimit: 2; opacity: 1;"><g class="fills"/><g class="errorbars"/><g class="lines"><path class="js-line" d="M0,114.12L47.42,114.12L48.73,111.04L50.73,104.9L52.39,97.21L68.17,15.74L68.89,13.69L72.57,8.06L75.88,7.03L80.55,6.01L87.51,6.01L93.32,7.54L101.44,15.74L114.88,36.24L124.96,46.48L135.53,58.78L154.92,77.23L183.99,101.31L196.76,109.51L203.67,112.07L257.57,110.02L329,114.12" style="vector-effect: non-scaling-stroke; fill: none; stroke: rgb(0, 0, 255); stroke-opacity: 1; stroke-width: 2px; opacity: 1;"/></g><g class="points"/><g class="text"/></g></g></g><g class="overplot"/><path class="xlines-above crisp" d="M78,554.375H411M78,432.25H411" style="fill: none; stroke-width: 2px; stroke: rgb(0, 0, 0); stroke-opacity: 1;"/><path class="ylines-above crisp" d="M79,433.25V553.375M410,433.25V553.375" style="fill: none; stroke-width: 2px; stroke: rgb(0, 0, 0); stroke-opacity: 1;"/><g class="overlines-above"/><g class="xaxislayer-above"><path class="x3tick ticks crisp" d="M0,553.375v-5" transform="translate(154.1,0)" style="stroke: rgb(68, 68, 68); stroke-opacity: 1; stroke-width: 1px;"/><path class="x3tick ticks crisp" d="M0,553.375v-5" transform="translate(228.2,0)" style="stroke: rgb(68, 68, 68); stroke-opacity: 1; stroke-width: 1px;"/><path class="x3tick ticks crisp" d="M0,553.375v-5" transform="translate(302.3,0)" style="stroke: rgb(68, 68, 68); stroke-opacity: 1; stroke-width: 1px;"/><path class="x3tick ticks crisp" d="M0,553.375v-5" transform="translate(376.4,0)" style="stroke: rgb(68, 68, 68); stroke-opacity: 1; stroke-width: 1px;"/></g><g class="yaxislayer-above"><g class="y3tick"><text text-anchor="end" x="75.6" y="4.199999999999999" transform="translate(0,547.37)" style="font-family: 'Open Sans', verdana, arial, sans-serif; font-size: 12px; fill: rgb(42, 63, 95); fill-opacity: 1; white-space: pre; opacity: 1;">0</text></g><g class="y3tick"><text text-anchor="end" x="75.6" y="4.199999999999999" style="font-family: 'Open Sans', verdana, arial, sans-serif; font-size: 12px; fill: rgb(42, 63, 95); fill-opacity: 1; white-space: pre; opacity: 1;" transform="translate(0,514.46)">2</text></g><g class="y3tick"><text text-anchor="end" x="75.6" y="4.199999999999999" style="font-family: 'Open Sans', verdana, arial, sans-serif; font-size: 12px; fill: rgb(42, 63, 95); fill-opacity: 1; white-space: pre; opacity: 1;" transform="translate(0,481.55)">4</text></g><g class="y3tick"><text text-anchor="end" x="75.6" y="4.199999999999999" style="font-family: 'Open Sans', verdana, arial, sans-serif; font-size: 12px; fill: rgb(42, 63, 95); fill-opacity: 1; white-space: pre; opacity: 1;" transform="translate(0,448.65)">6</text></g></g><g class="overaxes-above"/></g><g class="subplot x4y4"><g class="layer-subplot"><g class="shapelayer"/><g class="imagelayer"/></g><g class="gridlayer"><g class="x4"/><g class="y4"/></g><g class="zerolinelayer"/><path class="xlines-below"/><path class="ylines-below"/><g class="overlines-below"/><g class="xaxislayer-below"/><g class="yaxislayer-below"/><g class="overaxes-below"/><g class="plot" transform="translate(80,599.875)" clip-path="url(#clipdafca8x4y4plot)"><g class="scatterlayer mlayer"><g class="trace scatter trace1b6d23" style="stroke-miterlimit: 2; opacity: 1;"><g class="fills"/><g class="errorbars"/><g class="lines"><path class="js-line" d="M2.96,113.91L32.6,113.18L35.57,113.07L38.53,112.02L41.5,109.76L47.42,104.94L50.39,101.72L56.32,90.46L59.28,52.54L65.21,17.01L68.17,8.31L71.14,6.01L74.1,6.3L77.06,9.68L80.03,16.71L88.92,45.14L91.88,50.99L100.77,65.05L103.74,69L118.56,84.16L121.52,85.97L127.45,90.56L130.41,92.02L142.27,96.29L145.23,96.93L151.16,98.46L154.13,107.27L157.09,106.38L160.05,101.81L163.02,98.3L165.98,100.35L174.87,104.53L177.84,104.85L180.8,104.55L183.77,99.35L186.73,99.55L189.69,98.64L192.66,97.72L195.62,98.68L201.55,98.64L204.51,98.25L207.48,98.48L210.44,97.18L219.33,98.89L222.3,98.82L231.19,98.48L234.15,98.39L254.9,99.71L257.86,99.96L260.83,100.19L263.79,99.41L266.76,100.56L269.72,100.72L284.54,102.22L287.5,102.41L293.43,103.09L296.4,103.52L305.29,102.57L308.25,102.84L317.14,103.55L320.11,104.12L323.07,103.75" style="vector-effect: non-scaling-stroke; fill: none; stroke: rgb(0, 255, 0); stroke-opacity: 1; stroke-width: 2px; opacity: 1;"/></g><g class="points"/><g class="text"/></g></g></g><g class="overplot"/><path class="xlines-above crisp" d="M78,721H411M78,598.875H411" style="fill: none; stroke-width: 2px; stroke: rgb(0, 0, 0); stroke-opacity: 1;"/><path class="ylines-above crisp" d="M79,599.875V720M410,599.875V720" style="fill: none; stroke-width: 2px; stroke: rgb(0, 0, 0); stroke-opacity: 1;"/><g class="overlines-above"/><g class="xaxislayer-above"><path class="x4tick ticks crisp" d="M0,720v-5" transform="translate(154.1,0)" style="stroke: rgb(68, 68, 68); stroke-opacity: 1; stroke-width: 1px;"/><path class="x4tick ticks crisp" d="M0,720v-5" transform="translate(228.2,0)" style="stroke: rgb(68, 68, 68); stroke-opacity: 1; stroke-width: 1px;"/><path class="x4tick ticks crisp" d="M0,720v-5" transform="translate(302.3,0)" style="stroke: rgb(68, 68, 68); stroke-opacity: 1; stroke-width: 1px;"/><path class="x4tick ticks crisp" d="M0,720v-5" transform="translate(376.4,0)" style="stroke: rgb(68, 68, 68); stroke-opacity: 1; stroke-width: 1px;"/><g class="x4tick"><text text-anchor="middle" x="0" y="736.4" transform="translate(80,0)" style="font-family: 'Open Sans', verdana, arial, sans-serif; font-size: 12px; fill: rgb(42, 63, 95); fill-opacity: 1; white-space: pre; opacity: 1;">0</text></g><g class="x4tick"><text text-anchor="middle" x="0" y="736.4" style="font-family: 'Open Sans', verdana, arial, sans-serif; font-size: 12px; fill: rgb(42, 63, 95); fill-opacity: 1; white-space: pre; opacity: 1;" transform="translate(154.1,0)">50</text></g><g class="x4tick"><text text-anchor="middle" x="0" y="736.4" style="font-family: 'Open Sans', verdana, arial, sans-serif; font-size: 12px; fill: rgb(42, 63, 95); fill-opacity: 1; white-space: pre; opacity: 1;" transform="translate(228.2,0)">100</text></g><g class="x4tick"><text text-anchor="middle" x="0" y="736.4" style="font-family: 'Open Sans', verdana, arial, sans-serif; font-size: 12px; fill: rgb(42, 63, 95); fill-opacity: 1; white-space: pre; opacity: 1;" transform="translate(302.3,0)">150</text></g><g class="x4tick"><text text-anchor="middle" x="0" y="736.4" style="font-family: 'Open Sans', verdana, arial, sans-serif; font-size: 12px; fill: rgb(42, 63, 95); fill-opacity: 1; white-space: pre; opacity: 1;" transform="translate(376.4,0)">200</text></g></g><g class="yaxislayer-above"><g class="y4tick"><text text-anchor="end" x="75.6" y="4.199999999999999" transform="translate(0,680.385)" style="font-family: 'Open Sans', verdana, arial, sans-serif; font-size: 12px; fill: rgb(42, 63, 95); fill-opacity: 1; white-space: pre; opacity: 1;">60</text></g><g class="y4tick"><text text-anchor="end" x="75.6" y="4.199999999999999" style="font-family: 'Open Sans', verdana, arial, sans-serif; font-size: 12px; fill: rgb(42, 63, 95); fill-opacity: 1; white-space: pre; opacity: 1;" transform="translate(0,634.715)">80</text></g></g><g class="overaxes-above"/></g></g><g class="polarlayer"/><g class="ternarylayer"/><g class="geolayer"/><g class="funnelarealayer"/><g class="pielayer"/><g class="iciclelayer"/><g class="treemaplayer"/><g class="sunburstlayer"/><g class="glimages"/><defs id="topdefs-dafca8"><g class="clips"/><clipPath id="legenddafca8"><rect width="172" height="105" x="0" y="0"/></clipPath></defs><g class="layer-above"><g class="imagelayer"/><g class="shapelayer"/></g><g class="infolayer"><g class="legend" pointer-events="all" transform="translate(415.58,100)"><rect class="bg" shape-rendering="crispEdges" width="172" height="105" x="0" y="0" style="stroke: rgb(68, 68, 68); stroke-opacity: 1; fill: rgb(255, 255, 255); fill-opacity: 1; stroke-width: 0px;"/><g class="scrollbox" transform="" clip-path="url(#legenddafca8)"><text class="legendtitletext" text-anchor="start" x="2" y="18.2" style="font-family: 'Open Sans', verdana, arial, sans-serif; font-size: 14px; fill: rgb(42, 63, 95); fill-opacity: 1; white-space: pre;">Legend</text><g class="groups"><g class="traces" transform="translate(0,32.7)" style="opacity: 1;"><text class="legendtext" text-anchor="start" x="40" y="4.680000000000001" style="font-family: 'Open Sans', verdana, arial, sans-serif; font-size: 12px; fill: rgb(42, 63, 95); fill-opacity: 1; white-space: pre;">HR</text><g class="layers" style="opacity: 1;"><g class="legendfill"/><g class="legendlines"><path class="js-line" d="M5,0h30" style="fill: none; stroke: rgb(255, 0, 0); stroke-opacity: 1; stroke-width: 2px;"/></g><g class="legendsymbols"><g class="legendpoints"/></g></g><rect class="legendtoggle" x="0" y="-9.5" width="166.15625" height="19" style="fill: rgb(0, 0, 0); fill-opacity: 0;"/></g><g class="traces" transform="translate(0,51.7)" style="opacity: 1;"><text class="legendtext" text-anchor="start" x="40" y="4.680000000000001" style="font-family: 'Open Sans', verdana, arial, sans-serif; font-size: 12px; fill: rgb(42, 63, 95); fill-opacity: 1; white-space: pre;">Sweat Rate (nL/min)</text><g class="layers" style="opacity: 1;"><g class="legendfill"/><g class="legendlines"><path class="js-line" d="M5,0h30" style="fill: none; stroke: rgb(0, 0, 255); stroke-opacity: 1; stroke-width: 2px;"/></g><g class="legendsymbols"><g class="legendpoints"/></g></g><rect class="legendtoggle" x="0" y="-9.5" width="166.15625" height="19" style="fill: rgb(0, 0, 0); fill-opacity: 0;"/></g><g class="traces" transform="translate(0,70.7)" style="opacity: 1;"><text class="legendtext" text-anchor="start" x="40" y="4.680000000000001" style="font-family: 'Open Sans', verdana, arial, sans-serif; font-size: 12px; fill: rgb(42, 63, 95); fill-opacity: 1; white-space: pre;">Sweat Volume</text><g class="layers" style="opacity: 1;"><g class="legendfill"/><g class="legendlines"><path class="js-line" d="M5,0h30" style="fill: none; stroke: rgb(0, 0, 255); stroke-opacity: 1; stroke-width: 2px;"/></g><g class="legendsymbols"><g class="legendpoints"/></g></g><rect class="legendtoggle" x="0" y="-9.5" width="166.15625" height="19" style="fill: rgb(0, 0, 0); fill-opacity: 0;"/></g><g class="traces" transform="translate(0,89.7)" style="opacity: 1;"><text class="legendtext" text-anchor="start" x="40" y="4.680000000000001" style="font-family: 'Open Sans', verdana, arial, sans-serif; font-size: 12px; fill: rgb(42, 63, 95); fill-opacity: 1; white-space: pre;">Room Humidity (%)</text><g class="layers" style="opacity: 1;"><g class="legendfill"/><g class="legendlines"><path class="js-line" d="M5,0h30" style="fill: none; stroke: rgb(0, 255, 0); stroke-opacity: 1; stroke-width: 2px;"/></g><g class="legendsymbols"><g class="legendpoints"/></g></g><rect class="legendtoggle" x="0" y="-9.5" width="166.15625" height="19" style="fill: rgb(0, 0, 0); fill-opacity: 0;"/></g></g></g><rect class="scrollbar" rx="20" ry="3" width="0" height="0" x="0" y="0" style="fill: rgb(128, 139, 164); fill-opacity: 1;"/></g><g class="g-gtitle"><text class="gtitle" x="30" y="50" text-anchor="start" dy="0em" style="font-family: 'Open Sans', verdana, arial, sans-serif; font-size: 17px; fill: rgb(42, 63, 95); opacity: 1; font-weight: normal; white-space: pre;">Figure 5c</text></g><g class="g-xtitle"/><g class="g-x2title"/><g class="g-x3title"/><g class="g-x4title"/><g class="g-ytitle"><text class="ytitle" transform="rotate(-90,27.903125000000003,160.0625)" x="27.903125000000003" y="160.0625" text-anchor="middle" style="font-family: 'Open Sans', verdana, arial, sans-serif; font-size: 14px; fill: rgb(42, 63, 95); opacity: 1; font-weight: normal; white-space: pre;">Heart Rate (bpm)</text></g><g class="g-y2title"><text class="y2title" transform="rotate(-90,31.168750000000003,326.6875)" x="31.168750000000003" y="326.6875" text-anchor="middle" style="font-family: 'Open Sans', verdana, arial, sans-serif; font-size: 14px; fill: rgb(42, 63, 95); opacity: 1; font-weight: normal; white-space: pre;">Sweat Rate (uL/min)</text></g><g class="g-y3title"><text class="y3title" transform="rotate(-90,43.16875,493.3125)" x="43.16875" y="493.3125" text-anchor="middle" style="font-family: 'Open Sans', verdana, arial, sans-serif; font-size: 14px; fill: rgb(42, 63, 95); opacity: 1; font-weight: normal; white-space: pre;">Sweat Loss (uL)</text></g><g class="g-y4title"><text class="y4title" transform="rotate(-90,35.528125,659.9375)" x="35.528125" y="659.9375" text-anchor="middle" style="font-family: 'Open Sans', verdana, arial, sans-serif; font-size: 14px; fill: rgb(42, 63, 95); opacity: 1; font-weight: normal; white-space: pre;">Humidity (%)</text></g></g></svg>