<svg class="main-svg" xmlns="http://www.w3.org/2000/svg" xmlns:xlink="http://www.w3.org/1999/xlink" width="600" height="800" style="" viewBox="0 0 600 800"><rect x="0" y="0" width="600" height="800" style="fill: rgb(255, 255, 255); fill-opacity: 1;"/><defs id="defs-429148"><g class="clips"><clipPath id="clip429148xyplot" class="plotclip"><rect width="329" height="120.12499999999999"/></clipPath><clipPath id="clip429148x2y2plot" class="plotclip"><rect width="329" height="120.12499999999999"/></clipPath><clipPath id="clip429148x3y3plot" class="plotclip"><rect width="329" height="120.12500000000001"/></clipPath><clipPath id="clip429148x4y4plot" class="plotclip"><rect width="329" height="120.125"/></clipPath><clipPath class="axesclip" id="clip429148x"><rect x="80" y="0" width="329" height="800"/></clipPath><clipPath class="axesclip" id="clip429148y"><rect x="0" y="100" width="600" height="120.12499999999999"/></clipPath><clipPath class="axesclip" id="clip429148xy"><rect x="80" y="100" width="329" height="120.12499999999999"/></clipPath><clipPath class="axesclip" id="clip429148y2"><rect x="0" y="266.625" width="600" height="120.12499999999999"/></clipPath><clipPath class="axesclip" id="clip429148xy2"><rect x="80" y="266.625" width="329" height="120.12499999999999"/></clipPath><clipPath class="axesclip" id="clip429148y3"><rect x="0" y="433.25" width="600" height="120.12500000000001"/></clipPath><clipPath class="axesclip" id="clip429148xy3"><rect x="80" y="433.25" width="329" height="120.12500000000001"/></clipPath><clipPath class="axesclip" id="clip429148y4"><rect x="0" y="599.875" width="600" height="120.125"/></clipPath><clipPath class="axesclip" id="clip429148xy4"><rect x="80" y="599.875" width="329" height="120.125"/></clipPath><clipPath class="axesclip" id="clip429148x2"><rect x="80" y="0" width="329" height="800"/></clipPath><clipPath class="axesclip" id="clip429148x2y"><rect x="80" y="100" width="329" height="120.12499999999999"/></clipPath><clipPath class="axesclip" id="clip429148x2y2"><rect x="80" y="266.625" width="329" height="120.12499999999999"/></clipPath><clipPath class="axesclip" id="clip429148x2y3"><rect x="80" y="433.25" width="329" height="120.12500000000001"/></clipPath><clipPath class="axesclip" id="clip429148x2y4"><rect x="80" y="599.875" width="329" height="120.125"/></clipPath><clipPath class="axesclip" id="clip429148x3"><rect x="80" y="0" width="329" height="800"/></clipPath><clipPath class="axesclip" id="clip429148x3y"><rect x="80" y="100" width="329" height="120.12499999999999"/></clipPath><clipPath class="axesclip" id="clip429148x3y2"><rect x="80" y="266.625" width="329" height="120.12499999999999"/></clipPath><clipPath class="axesclip" id="clip429148x3y3"><rect x="80" y="433.25" width="329" height="120.12500000000001"/></clipPath><clipPath class="axesclip" id="clip429148x3y4"><rect x="80" y="599.875" width="329" height="120.125"/></clipPath><clipPath class="axesclip" id="clip429148x4"><rect x="80" y="0" width="329" height="800"/></clipPath><clipPath class="axesclip" id="clip429148x4y"><rect x="80" y="100" width="329" height="120.12499999999999"/></clipPath><clipPath class="axesclip" id="clip429148x4y2"><rect x="80" y="266.625" width="329" height="120.12499999999999"/></clipPath><clipPath class="axesclip" id="clip429148x4y3"><rect x="80" y="433.25" width="329" height="120.12500000000001"/></clipPath><clipPath class="axesclip" id="clip429148x4y4"><rect x="80" y="599.875" width="329" height="120.125"/></clipPath></g><g class="gradients"/><g class="patterns"/></defs><g class="bglayer"><rect class="bg" x="80" y="100" width="329" height="120.12499999999999" style="fill: rgb(0, 0, 0); fill-opacity: 0; stroke-width: 0;"/><rect class="bg" x="80" y="266.625" width="329" height="120.12499999999999" style="fill: rgb(0, 0, 0); fill-opacity: 0; stroke-width: 0;"/><rect class="bg" x="80" y="433.25" width="329" height="120.12500000000001" style="fill: rgb(0, 0, 0); fill-opacity: 0; stroke-width: 0;"/><rect class="bg" x="80" y="599.875" width="329" height="120.125" style="fill: rgb(0, 0, 0); fill-opacity: 0; stroke-width: 0;"/></g><g class="layer-below"><g class="imagelayer"/><g class="shapelayer"/></g><g class="cartesianlayer"><g class="subplot xy"><g class="layer-subplot"><g class="shapelayer"/><g class="imagelayer"/></g><g class="gridlayer"><g class="x"/><g class="y"/></g><g class="zerolinelayer"/><path class="xlines-below"/><path class="ylines-below"/><g class="overlines-below"/><g class="xaxislayer-below"/><g class="yaxislayer-below"/><g class="overaxes-below"/><g class="plot" transform="translate(80,100)" clip-path="url(#clip429148xyplot)"><g class="scatterlayer mlayer"><g class="trace scatter trace5b9d6e" style="stroke-miterlimit: 2; opacity: 1;"><g class="fills"/><g class="errorbars"/><g class="lines"><path class="js-line" d="M0.89,102.79L2.41,101.76L3.93,106.91L5.46,106.91L6.98,104.85L8.5,104.85L10.03,106.91L11.55,107.94L13.07,107.94L14.6,106.91L16.12,107.94L17.64,107.94L19.17,110L22.21,96.61L23.74,102.79L25.26,92.5L26.78,97.64L28.31,104.85L29.83,104.85L31.35,103.82L32.87,105.88L34.4,103.82L35.92,103.82L37.44,103.82L38.97,102.79L40.49,100.73L42.01,106.91L43.54,105.88L45.06,110L46.58,108.97L48.11,114.12L51.15,112.06L52.68,112.06L54.2,113.09L55.72,108.97L57.24,106.91L58.77,107.94L61.81,104.85L63.34,96.61L64.86,92.5L66.38,73.96L67.91,45.13L69.43,52.34L70.95,23.51L72.48,20.42L74,37.93L75.52,25.57L77.05,18.36L78.57,28.66L80.09,38.95L81.62,15.27L83.14,15.27L84.66,22.48L86.18,13.21L87.71,14.24L89.23,13.21L90.75,14.24L92.28,14.24L93.8,22.48L95.32,19.39L96.85,9.1L98.37,34.84L99.89,6.01L101.42,23.51L102.94,52.34L105.99,63.67L107.51,68.81L109.03,69.84L110.56,74.99L112.08,78.08L113.6,78.08L116.65,83.23L118.17,81.17L119.69,85.29L121.22,85.29L122.74,86.32L124.26,84.26L127.31,87.35L128.83,88.38L130.36,89.41L131.88,92.5L134.93,88.38L136.45,91.47L137.97,89.41L139.49,95.59L141.02,95.59L142.54,94.56L145.59,92.5L147.11,93.53L148.63,97.64L150.16,96.61L151.68,94.56L153.2,94.56L154.73,97.64L156.25,98.67L157.77,96.61L159.3,99.7L160.82,98.67L162.34,98.67L165.39,93.53L166.91,85.29L169.96,80.14L171.48,72.93L173,73.96L174.53,82.2L176.05,92.5L177.57,94.56L182.14,101.76L183.67,98.67L185.19,98.67L186.71,99.7L188.24,96.61L189.76,89.41L191.28,78.08L192.81,82.2L194.33,79.11L195.85,92.5L197.37,99.7L198.9,83.23L200.42,66.76L201.94,81.17L203.47,76.02L204.99,90.44L206.51,80.14L208.04,90.44L209.56,97.64L211.08,93.53L212.61,91.47L214.13,93.53L215.65,92.5L217.18,93.53L218.7,92.5L220.22,93.53L221.74,93.53L223.27,92.5L226.31,92.5L227.84,93.53L229.36,92.5L230.88,93.53L232.41,92.5L233.93,93.53L235.45,89.41L236.98,91.47L238.5,91.47L240.02,92.5L241.55,96.61L243.07,94.56L244.59,93.53L246.12,95.59L247.64,94.56L249.16,94.56L250.68,90.44L252.21,94.56L253.73,96.61L255.25,93.53L256.78,96.61L258.3,94.56L259.82,101.76L261.35,99.7L262.87,99.7L264.39,100.73L265.92,104.85L267.44,105.88L268.96,101.76L270.49,103.82L272.01,98.67L273.53,97.64L276.58,95.59L278.1,102.79L279.62,103.82L281.15,101.76L282.67,103.82L284.19,100.73L285.72,104.85L287.24,105.88L288.76,104.85L290.29,102.79L293.33,104.85L294.86,106.91L296.38,102.79L297.9,102.79L299.43,105.88L300.95,102.79L302.47,100.73L303.99,100.73L305.52,104.85L307.04,103.82L308.56,101.76L310.09,101.76L311.61,100.73L313.13,101.76L314.66,100.73L316.18,96.61L317.7,102.79L319.23,101.76L320.75,101.76L322.27,104.85L323.8,98.67L325.32,101.76L326.84,103.82L328.37,103.82" style="vector-effect: non-scaling-stroke; fill: none; stroke: rgb(255, 0, 0); stroke-opacity: 1; stroke-width: 2px; opacity: 1;"/></g><g class="points"/><g class="text"/></g></g></g><g class="overplot"/><path class="xlines-above crisp" d="M78,221.125H411M78,99H411" style="fill: none; stroke-width: 2px; stroke: rgb(0, 0, 0); stroke-opacity: 1;"/><path class="ylines-above crisp" d="M79,100V220.125M410,100V220.125" style="fill: none; stroke-width: 2px; stroke: rgb(0, 0, 0); stroke-opacity: 1;"/><g class="overlines-above"/><g class="xaxislayer-above"><path class="xtick ticks crisp" d="M0,220.125v-5" transform="translate(156.16,0)" style="stroke: rgb(68, 68, 68); stroke-opacity: 1; stroke-width: 1px;"/><path class="xtick ticks crisp" d="M0,220.125v-5" transform="translate(232.31,0)" style="stroke: rgb(68, 68, 68); stroke-opacity: 1; stroke-width: 1px;"/><path class="xtick ticks crisp" d="M0,220.125v-5" transform="translate(308.47,0)" style="stroke: rgb(68, 68, 68); stroke-opacity: 1; stroke-width: 1px;"/><path class="xtick ticks crisp" d="M0,220.125v-5" transform="translate(384.63,0)" style="stroke: rgb(68, 68, 68); stroke-opacity: 1; stroke-width: 1px;"/></g><g class="yaxislayer-above"><g class="ytick"><text text-anchor="end" x="75.6" y="4.199999999999999" transform="translate(0,174.99)" style="font-family: 'Open Sans', verdana, arial, sans-serif; font-size: 12px; fill: rgb(42, 63, 95); fill-opacity: 1; white-space: pre; opacity: 1;">100</text></g><g class="ytick"><text text-anchor="end" x="75.6" y="4.199999999999999" style="font-family: 'Open Sans', verdana, arial, sans-serif; font-size: 12px; fill: rgb(42, 63, 95); fill-opacity: 1; white-space: pre; opacity: 1;" transform="translate(0,123.51)">150</text></g></g><g class="overaxes-above"/></g><g class="subplot x2y2"><g class="layer-subplot"><g class="shapelayer"/><g class="imagelayer"/></g><g class="gridlayer"><g class="x2"/><g class="y2"/></g><g class="zerolinelayer"><path class="y2zl zl crisp" transform="translate(0,380.745)" d="M80,0h329" style="stroke: rgb(255, 255, 255); stroke-opacity: 1; stroke-width: 2px;"/></g><path class="xlines-below"/><path class="ylines-below"/><g class="overlines-below"/><g class="xaxislayer-below"/><g class="yaxislayer-below"/><g class="overaxes-below"/><g class="plot" transform="translate(80,266.625)" clip-path="url(#clip429148x2y2plot)"><g class="scatterlayer mlayer"><g class="trace scatter trace134272" style="stroke-miterlimit: 2; opacity: 1;"><g class="fills"/><g class="errorbars"/><g class="lines"><path class="js-line" d="M0,114.12L72.48,114.12L77.38,6.01L87.33,114.12L90.68,114.12L100.22,77.12L101.47,114.12L105.1,65.48L111.22,114.12L329,114.12" style="vector-effect: non-scaling-stroke; fill: none; stroke: rgb(0, 0, 255); stroke-opacity: 1; stroke-width: 2px; opacity: 1;"/></g><g class="points"/><g class="text"/></g></g></g><g class="overplot"/><path class="xlines-above crisp" d="M78,387.75H411M78,265.625H411" style="fill: none; stroke-width: 2px; stroke: rgb(0, 0, 0); stroke-opacity: 1;"/><path class="ylines-above crisp" d="M79,266.625V386.75M410,266.625V386.75" style="fill: none; stroke-width: 2px; stroke: rgb(0, 0, 0); stroke-opacity: 1;"/><g class="overlines-above"/><g class="xaxislayer-above"><path class="x2tick ticks crisp" d="M0,386.75v-5" transform="translate(156.16,0)" style="stroke: rgb(68, 68, 68); stroke-opacity: 1; stroke-width: 1px;"/><path class="x2tick ticks crisp" d="M0,386.75v-5" transform="translate(232.31,0)" style="stroke: rgb(68, 68, 68); stroke-opacity: 1; stroke-width: 1px;"/><path class="x2tick ticks crisp" d="M0,386.75v-5" transform="translate(308.47,0)" style="stroke: rgb(68, 68, 68); stroke-opacity: 1; stroke-width: 1px;"/><path class="x2tick ticks crisp" d="M0,386.75v-5" transform="translate(384.63,0)" style="stroke: rgb(68, 68, 68); stroke-opacity: 1; stroke-width: 1px;"/></g><g class="yaxislayer-above"><g class="y2tick"><text text-anchor="end" x="75.6" y="4.199999999999999" transform="translate(0,380.745)" style="font-family: 'Open Sans', verdana, arial, sans-serif; font-size: 12px; fill: rgb(42, 63, 95); fill-opacity: 1; white-space: pre; opacity: 1;">0</text></g><g class="y2tick"><text text-anchor="end" x="75.6" y="4.199999999999999" style="font-family: 'Open Sans', verdana, arial, sans-serif; font-size: 12px; fill: rgb(42, 63, 95); fill-opacity: 1; white-space: pre; opacity: 1;" transform="translate(0,334.21500000000003)">0.05</text></g><g class="y2tick"><text text-anchor="end" x="75.6" y="4.199999999999999" style="font-family: 'Open Sans', verdana, arial, sans-serif; font-size: 12px; fill: rgb(42, 63, 95); fill-opacity: 1; white-space: pre; opacity: 1;" transform="translate(0,287.685)">0.1</text></g></g><g class="overaxes-above"/></g><g class="subplot x3y3"><g class="layer-subplot"><g class="shapelayer"/><g class="imagelayer"/></g><g class="gridlayer"><g class="x3"/><g class="y3"/></g><g class="zerolinelayer"><path class="y3zl zl crisp" transform="translate(0,547.37)" d="M80,0h329" style="stroke: rgb(255, 255, 255); stroke-opacity: 1; stroke-width: 2px;"/></g><path class="xlines-below"/><path class="ylines-below"/><g class="overlines-below"/><g class="xaxislayer-below"/><g class="yaxislayer-below"/><g class="overaxes-below"/><g class="plot" transform="translate(80,433.25)" clip-path="url(#clip429148x3y3plot)"><g class="scatterlayer mlayer"><g class="trace scatter trace86e938" style="stroke-miterlimit: 2; opacity: 1;"><g class="fills"/><g class="errorbars"/><g class="lines"><path class="js-line" d="M0,114.12L72.48,114.12L77.38,60.06L90.68,60.06L100.22,24.02L101.47,24.02L105.1,6.01L111.22,24.02L115.18,60.06L134.27,114.12L162.82,114.12L329,114.12" style="vector-effect: non-scaling-stroke; fill: none; stroke: rgb(0, 0, 255); stroke-opacity: 1; stroke-width: 2px; opacity: 1;"/></g><g class="points"/><g class="text"/></g></g></g><g class="overplot"/><path class="xlines-above crisp" d="M78,554.375H411M78,432.25H411" style="fill: none; stroke-width: 2px; stroke: rgb(0, 0, 0); stroke-opacity: 1;"/><path class="ylines-above crisp" d="M79,433.25V553.375M410,433.25V553.375" style="fill: none; stroke-width: 2px; stroke: rgb(0, 0, 0); stroke-opacity: 1;"/><g class="overlines-above"/><g class="xaxislayer-above"><path class="x3tick ticks crisp" d="M0,553.375v-5" transform="translate(156.16,0)" style="stroke: rgb(68, 68, 68); stroke-opacity: 1; stroke-width: 1px;"/><path class="x3tick ticks crisp" d="M0,553.375v-5" transform="translate(232.31,0)" style="stroke: rgb(68, 68, 68); stroke-opacity: 1; stroke-width: 1px;"/><path class="x3tick ticks crisp" d="M0,553.375v-5" transform="translate(308.47,0)" style="stroke: rgb(68, 68, 68); stroke-opacity: 1; stroke-width: 1px;"/><path class="x3tick ticks crisp" d="M0,553.375v-5" transform="translate(384.63,0)" style="stroke: rgb(68, 68, 68); stroke-opacity: 1; stroke-width: 1px;"/></g><g class="yaxislayer-above"><g class="y3tick"><text text-anchor="end" x="75.6" y="4.199999999999999" transform="translate(0,547.37)" style="font-family: 'Open Sans', verdana, arial, sans-serif; font-size: 12px; fill: rgb(42, 63, 95); fill-opacity: 1; white-space: pre; opacity: 1;">0</text></g><g class="y3tick"><text text-anchor="end" x="75.6" y="4.199999999999999" style="font-family: 'Open Sans', verdana, arial, sans-serif; font-size: 12px; fill: rgb(42, 63, 95); fill-opacity: 1; white-space: pre; opacity: 1;" transform="translate(0,518.44)">0.2</text></g><g class="y3tick"><text text-anchor="end" x="75.6" y="4.199999999999999" style="font-family: 'Open Sans', verdana, arial, sans-serif; font-size: 12px; fill: rgb(42, 63, 95); fill-opacity: 1; white-space: pre; opacity: 1;" transform="translate(0,489.51)">0.4</text></g><g class="y3tick"><text text-anchor="end" x="75.6" y="4.199999999999999" style="font-family: 'Open Sans', verdana, arial, sans-serif; font-size: 12px; fill: rgb(42, 63, 95); fill-opacity: 1; white-space: pre; opacity: 1;" transform="translate(0,460.57)">0.6</text></g></g><g class="overaxes-above"/></g><g class="subplot x4y4"><g class="layer-subplot"><g class="shapelayer"/><g class="imagelayer"/></g><g class="gridlayer"><g class="x4"/><g class="y4"/></g><g class="zerolinelayer"/><path class="xlines-below"/><path class="ylines-below"/><g class="overlines-below"/><g class="xaxislayer-below"/><g class="yaxislayer-below"/><g class="overaxes-below"/><g class="plot" transform="translate(80,599.875)" clip-path="url(#clip429148x4y4plot)"><g class="scatterlayer mlayer"><g class="trace scatter trace30e51c" style="stroke-miterlimit: 2; opacity: 1;"><g class="fills"/><g class="errorbars"/><g class="lines"><path class="js-line" d="M0.51,99.19L9.65,102.83L12.69,103.71L18.79,105.18L21.83,114.12L24.88,99.78L27.92,105.48L30.97,104.1L34.02,104L37.06,103.22L40.11,103.61L43.16,106.66L46.2,105.97L52.29,106.36L55.34,107.93L58.39,107.54L61.43,106.36L70.57,105.28L73.62,103.61L76.67,102.04L79.71,91.73L91.9,42.63L94.94,35.96L101.04,25.74L104.08,17.99L107.15,9.44L110.2,6.01L113.25,6.69L116.29,8.66L119.34,12.98L122.38,20.24L125.43,31.14L128.48,38.51L131.52,40.57L134.57,47.74L137.62,54.91L140.66,58.74L149.8,75.33L152.85,81.52L161.99,89.18L165.03,109.9L168.08,99.39L171.13,69.24L174.17,65.81L177.22,81.62L180.26,93.6L183.31,100.96L186.36,104.89L189.4,106.56L192.45,100.18L195.5,90.36L198.54,85.05L201.59,70.23L204.63,70.72L207.68,76.61L210.73,76.61L213.77,72.39L216.82,70.32L219.87,70.32L229.01,74.35L232.08,73.56L235.1,72.58L238.14,73.17L241.19,71.89L244.24,73.37L259.47,86.13L262.51,86.23L268.61,89.47L271.65,88L277.77,82.7L280.82,87.51L286.91,90.55L289.96,90.55L293,90.65L296.05,91.53L305.19,93.69L308.23,97.52L311.28,100.96L314.33,100.37L317.37,101.55L320.42,100.18L323.47,104.99" style="vector-effect: non-scaling-stroke; fill: none; stroke: rgb(0, 255, 0); stroke-opacity: 1; stroke-width: 2px; opacity: 1;"/></g><g class="points"/><g class="text"/></g></g></g><g class="overplot"/><path class="xlines-above crisp" d="M78,721H411M78,598.875H411" style="fill: none; stroke-width: 2px; stroke: rgb(0, 0, 0); stroke-opacity: 1;"/><path class="ylines-above crisp" d="M79,599.875V720M410,599.875V720" style="fill: none; stroke-width: 2px; stroke: rgb(0, 0, 0); stroke-opacity: 1;"/><g class="overlines-above"/><g class="xaxislayer-above"><path class="x4tick ticks crisp" d="M0,720v-5" transform="translate(156.16,0)" style="stroke: rgb(68, 68, 68); stroke-opacity: 1; stroke-width: 1px;"/><path class="x4tick ticks crisp" d="M0,720v-5" transform="translate(232.31,0)" style="stroke: rgb(68, 68, 68); stroke-opacity: 1; stroke-width: 1px;"/><path class="x4tick ticks crisp" d="M0,720v-5" transform="translate(308.47,0)" style="stroke: rgb(68, 68, 68); stroke-opacity: 1; stroke-width: 1px;"/><path class="x4tick ticks crisp" d="M0,720v-5" transform="translate(384.63,0)" style="stroke: rgb(68, 68, 68); stroke-opacity: 1; stroke-width: 1px;"/><g class="x4tick"><text text-anchor="middle" x="0" y="736.4" transform="translate(80,0)" style="font-family: 'Open Sans', verdana, arial, sans-serif; font-size: 12px; fill: rgb(42, 63, 95); fill-opacity: 1; white-space: pre; opacity: 1;">0</text></g><g class="x4tick"><text text-anchor="middle" x="0" y="736.4" style="font-family: 'Open Sans', verdana, arial, sans-serif; font-size: 12px; fill: rgb(42, 63, 95); fill-opacity: 1; white-space: pre; opacity: 1;" transform="translate(156.16,0)">50</text></g><g class="x4tick"><text text-anchor="middle" x="0" y="736.4" style="font-family: 'Open Sans', verdana, arial, sans-serif; font-size: 12px; fill: rgb(42, 63, 95); fill-opacity: 1; white-space: pre; opacity: 1;" transform="translate(232.31,0)">100</text></g><g class="x4tick"><text text-anchor="middle" x="0" y="736.4" style="font-family: 'Open Sans', verdana, arial, sans-serif; font-size: 12px; fill: rgb(42, 63, 95); fill-opacity: 1; white-space: pre; opacity: 1;" transform="translate(308.47,0)">150</text></g><g class="x4tick"><text text-anchor="middle" x="0" y="736.4" style="font-family: 'Open Sans', verdana, arial, sans-serif; font-size: 12px; fill: rgb(42, 63, 95); fill-opacity: 1; white-space: pre; opacity: 1;" transform="translate(384.63,0)">200</text></g></g><g class="yaxislayer-above"><g class="y4tick"><text text-anchor="end" x="75.6" y="4.199999999999999" transform="translate(0,683.655)" style="font-family: 'Open Sans', verdana, arial, sans-serif; font-size: 12px; fill: rgb(42, 63, 95); fill-opacity: 1; white-space: pre; opacity: 1;">50</text></g><g class="y4tick"><text text-anchor="end" x="75.6" y="4.199999999999999" style="font-family: 'Open Sans', verdana, arial, sans-serif; font-size: 12px; fill: rgb(42, 63, 95); fill-opacity: 1; white-space: pre; opacity: 1;" transform="translate(0,634.555)">55</text></g></g><g class="overaxes-above"/></g></g><g class="polarlayer"/><g class="ternarylayer"/><g class="geolayer"/><g class="funnelarealayer"/><g class="pielayer"/><g class="iciclelayer"/><g class="treemaplayer"/><g class="sunburstlayer"/><g class="glimages"/><defs id="topdefs-429148"><g class="clips"/><clipPath id="legend429148"><rect width="172" height="105" x="0" y="0"/></clipPath></defs><g class="layer-above"><g class="imagelayer"/><g class="shapelayer"/></g><g class="infolayer"><g class="legend" pointer-events="all" transform="translate(415.58,100)"><rect class="bg" shape-rendering="crispEdges" width="172" height="105" x="0" y="0" style="stroke: rgb(68, 68, 68); stroke-opacity: 1; fill: rgb(255, 255, 255); fill-opacity: 1; stroke-width: 0px;"/><g class="scrollbox" transform="" clip-path="url(#legend429148)"><text class="legendtitletext" text-anchor="start" x="2" y="18.2" style="font-family: 'Open Sans', verdana, arial, sans-serif; font-size: 14px; fill: rgb(42, 63, 95); fill-opacity: 1; white-space: pre;">Legend</text><g class="groups"><g class="traces" transform="translate(0,32.7)" style="opacity: 1;"><text class="legendtext" text-anchor="start" x="40" y="4.680000000000001" style="font-family: 'Open Sans', verdana, arial, sans-serif; font-size: 12px; fill: rgb(42, 63, 95); fill-opacity: 1; white-space: pre;">HR</text><g class="layers" style="opacity: 1;"><g class="legendfill"/><g class="legendlines"><path class="js-line" d="M5,0h30" style="fill: none; stroke: rgb(255, 0, 0); stroke-opacity: 1; stroke-width: 2px;"/></g><g class="legendsymbols"><g class="legendpoints"/></g></g><rect class="legendtoggle" x="0" y="-9.5" width="166.15625" height="19" style="fill: rgb(0, 0, 0); fill-opacity: 0;"/></g><g class="traces" transform="translate(0,51.7)" style="opacity: 1;"><text class="legendtext" text-anchor="start" x="40" y="4.680000000000001" style="font-family: 'Open Sans', verdana, arial, sans-serif; font-size: 12px; fill: rgb(42, 63, 95); fill-opacity: 1; white-space: pre;">Sweat Rate (nL/min)</text><g class="layers" style="opacity: 1;"><g class="legendfill"/><g class="legendlines"><path class="js-line" d="M5,0h30" style="fill: none; stroke: rgb(0, 0, 255); stroke-opacity: 1; stroke-width: 2px;"/></g><g class="legendsymbols"><g class="legendpoints"/></g></g><rect class="legendtoggle" x="0" y="-9.5" width="166.15625" height="19" style="fill: rgb(0, 0, 0); fill-opacity: 0;"/></g><g class="traces" transform="translate(0,70.7)" style="opacity: 1;"><text class="legendtext" text-anchor="start" x="40" y="4.680000000000001" style="font-family: 'Open Sans', verdana, arial, sans-serif; font-size: 12px; fill: rgb(42, 63, 95); fill-opacity: 1; white-space: pre;">Sweat Volume</text><g class="layers" style="opacity: 1;"><g class="legendfill"/><g class="legendlines"><path class="js-line" d="M5,0h30" style="fill: none; stroke: rgb(0, 0, 255); stroke-opacity: 1; stroke-width: 2px;"/></g><g class="legendsymbols"><g class="legendpoints"/></g></g><rect class="legendtoggle" x="0" y="-9.5" width="166.15625" height="19" style="fill: rgb(0, 0, 0); fill-opacity: 0;"/></g><g class="traces" transform="translate(0,89.7)" style="opacity: 1;"><text class="legendtext" text-anchor="start" x="40" y="4.680000000000001" style="font-family: 'Open Sans', verdana, arial, sans-serif; font-size: 12px; fill: rgb(42, 63, 95); fill-opacity: 1; white-space: pre;">Room Humidity (%)</text><g class="layers" style="opacity: 1;"><g class="legendfill"/><g class="legendlines"><path class="js-line" d="M5,0h30" style="fill: none; stroke: rgb(0, 255, 0); stroke-opacity: 1; stroke-width: 2px;"/></g><g class="legendsymbols"><g class="legendpoints"/></g></g><rect class="legendtoggle" x="0" y="-9.5" width="166.15625" height="19" style="fill: rgb(0, 0, 0); fill-opacity: 0;"/></g></g></g><rect class="scrollbar" rx="20" ry="3" width="0" height="0" x="0" y="0" style="fill: rgb(128, 139, 164); fill-opacity: 1;"/></g><g class="g-gtitle"><text class="gtitle" x="30" y="50" text-anchor="start" dy="0em" style="font-family: 'Open Sans', verdana, arial, sans-serif; font-size: 17px; fill: rgb(42, 63, 95); opacity: 1; font-weight: normal; white-space: pre;">Figure 5b</text></g><g class="g-xtitle"/><g class="g-x2title"/><g class="g-x3title"/><g class="g-x4title"/><g class="g-ytitle"><text class="ytitle" transform="rotate(-90,27.903125000000003,160.0625)" x="27.903125000000003" y="160.0625" text-anchor="middle" style="font-family: 'Open Sans', verdana, arial, sans-serif; font-size: 14px; fill: rgb(42, 63, 95); opacity: 1; font-weight: normal; white-space: pre;">Heart Rate (bpm)</text></g><g class="g-y2title"><text class="y2title" transform="rotate(-90,23.543750000000003,326.6875)" x="23.543750000000003" y="326.6875" text-anchor="middle" style="font-family: 'Open Sans', verdana, arial, sans-serif; font-size: 14px; fill: rgb(42, 63, 95); opacity: 1; font-weight: normal; white-space: pre;">Sweat Rate (uL/min)</text></g><g class="g-y3title"><text class="y3title" transform="rotate(-90,31.168750000000003,493.3125)" x="31.168750000000003" y="493.3125" text-anchor="middle" style="font-family: 'Open Sans', verdana, arial, sans-serif; font-size: 14px; fill: rgb(42, 63, 95); opacity: 1; font-weight: normal; white-space: pre;">Sweat Loss (uL)</text></g><g class="g-y4title"><text class="y4title" transform="rotate(-90,35.528125,659.9375)" x="35.528125" y="659.9375" text-anchor="middle" style="font-family: 'Open Sans', verdana, arial, sans-serif; font-size: 14px; fill: rgb(42, 63, 95); opacity: 1; font-weight: normal; white-space: pre;">Humidity (%)</text></g></g></svg>